<svg id="Layer_1" data-name="Layer 1" xmlns="http://www.w3.org/2000/svg" viewBox="0 0 398.97 49.21"><defs><style>.cls-1,.cls-2{fill:#fff;stroke:#fff;stroke-miterlimit:10;}.cls-1{stroke-width:2px;}</style></defs><title>cftc_logo</title><path class="cls-1" d="M22.58,41.05A19,19,0,0,1,22,45.94a13,13,0,0,1-1.89,4.18A9.73,9.73,0,0,1,16.85,53a9,9,0,0,1-4.54,1.1,9.37,9.37,0,0,1-4-.82,9,9,0,0,1-3-2.24,12.9,12.9,0,0,1-2.08-3.32,22.06,22.06,0,0,1-1.33-4.07,34.11,34.11,0,0,1-.71-4.52C1.07,37.59,1,36.05,1,34.53a35.06,35.06,0,0,1,.26-4.16,28.47,28.47,0,0,1,.82-4.15,20.58,20.58,0,0,1,1.48-3.79,13.07,13.07,0,0,1,2.17-3.11,9.66,9.66,0,0,1,2.95-2.11,8.85,8.85,0,0,1,3.79-.77,8,8,0,0,1,4.25,1.14,10.47,10.47,0,0,1,3.16,3,14.37,14.37,0,0,1,2,4.18,17,17,0,0,1,.68,4.74l-6.83.35c0-.13,0-.41,0-.84s-.07-.93-.15-1.5a16.9,16.9,0,0,0-.34-1.82,7.87,7.87,0,0,0-.62-1.75,4.13,4.13,0,0,0-1-1.32,2.22,2.22,0,0,0-1.49-.52,2.13,2.13,0,0,0-1.47.55,4.64,4.64,0,0,0-1.07,1.49,10.12,10.12,0,0,0-.73,2.18,25,25,0,0,0-.45,2.62c-.11.92-.19,1.86-.22,2.82s-.06,1.88-.06,2.78c0,1.13,0,2.25.06,3.37s.12,2.17.24,3.18a25.81,25.81,0,0,0,.51,2.79,8.42,8.42,0,0,0,.85,2.21A4.35,4.35,0,0,0,11,47.54a3,3,0,0,0,1.75.53,2.4,2.4,0,0,0,1.81-.74,5.81,5.81,0,0,0,1.12-1.87A12.23,12.23,0,0,0,16.29,43c.12-.88.22-1.72.28-2.5Z" transform="translate(0 -15.44)"/><path class="cls-1" d="M37.49,54.13a9.74,9.74,0,0,1-4-.78,8.72,8.72,0,0,1-3-2.17,11.6,11.6,0,0,1-2-3.29,22.32,22.32,0,0,1-1.27-4.12,33.89,33.89,0,0,1-.66-4.7c-.13-1.65-.19-3.32-.19-5A35.57,35.57,0,0,1,27,27a17.58,17.58,0,0,1,2-5.56,9.94,9.94,0,0,1,3.48-3.57,9.66,9.66,0,0,1,5.05-1.26,9.41,9.41,0,0,1,8.58,4.83,17.34,17.34,0,0,1,2,5.56,36.33,36.33,0,0,1,.65,7.07c0,1.69-.06,3.36-.19,5a35.45,35.45,0,0,1-.67,4.7,22.33,22.33,0,0,1-1.3,4.12,11.86,11.86,0,0,1-2.06,3.29,8.75,8.75,0,0,1-3,2.17A9.82,9.82,0,0,1,37.49,54.13Zm0-6a2.82,2.82,0,0,0,2.25-1A6.63,6.63,0,0,0,41,44.34a24.38,24.38,0,0,0,.55-4.43q.12-2.61.12-5.85,0-1.14,0-2.37c0-.83-.09-1.68-.18-2.57a23.16,23.16,0,0,0-.41-2.58,9.62,9.62,0,0,0-.74-2.2,4.63,4.63,0,0,0-1.17-1.53,2.49,2.49,0,0,0-1.66-.58,2.43,2.43,0,0,0-1.65.58,4.32,4.32,0,0,0-1.14,1.53,9.62,9.62,0,0,0-.73,2.2,25.72,25.72,0,0,0-.42,2.58c-.09.89-.15,1.74-.17,2.57s0,1.61,0,2.37q0,3.24.12,5.85A25.39,25.39,0,0,0,34,44.34a6.63,6.63,0,0,0,1.25,2.8A2.79,2.79,0,0,0,37.49,48.12Z" transform="translate(0 -15.44)"/><path class="cls-1" d="M54.12,17.19h7.4q7.12,0,10.67,4.51t3.53,13.72a32,32,0,0,1-.31,4.51,24.07,24.07,0,0,1-1,4.22,18.19,18.19,0,0,1-1.66,3.69,11.78,11.78,0,0,1-2.45,2.92A11.24,11.24,0,0,1,67,52.68a12.38,12.38,0,0,1-4.27.69H54.12Zm7,5.65V47.72h1a5.73,5.73,0,0,0,2.35-.46A5.22,5.22,0,0,0,66.26,46a7,7,0,0,0,1.18-1.87,12.76,12.76,0,0,0,.73-2.29,18.26,18.26,0,0,0,.38-2.51c.07-.86.1-1.72.1-2.57V34.13c0-1,0-2-.14-3a19.19,19.19,0,0,0-.52-3,9.42,9.42,0,0,0-1.1-2.65A5.63,5.63,0,0,0,65,23.55a5.79,5.79,0,0,0-3-.71Z" transform="translate(0 -15.44)"/><path class="cls-1" d="M80.78,17.19H99.16l-.57,5.65H87.85v8.62h7.61l0,6.08H87.85V47.72H99.54L99,53.37H80.78Z" transform="translate(0 -15.44)"/><path class="cls-1" d="M248.83,41.05a19.39,19.39,0,0,1-.62,4.89,13,13,0,0,1-1.9,4.18,9.8,9.8,0,0,1-3.2,2.91,9.1,9.1,0,0,1-4.55,1.1,9.29,9.29,0,0,1-4-.82,8.78,8.78,0,0,1-3-2.24,12.66,12.66,0,0,1-2.09-3.32,22.06,22.06,0,0,1-1.33-4.07,35.84,35.84,0,0,1-.71-4.52c-.14-1.57-.21-3.11-.21-4.63a35.06,35.06,0,0,1,.26-4.16,27.22,27.22,0,0,1,.83-4.15,19.86,19.86,0,0,1,1.47-3.79A12.82,12.82,0,0,1,232,19.32a9.62,9.62,0,0,1,2.94-2.11,8.88,8.88,0,0,1,3.79-.77A8,8,0,0,1,243,17.58a10.43,10.43,0,0,1,3.15,3,14.37,14.37,0,0,1,2,4.18,17,17,0,0,1,.68,4.74l-6.83.35c0-.13,0-.41,0-.84s-.07-.93-.14-1.5-.2-1.18-.35-1.82a7.39,7.39,0,0,0-.62-1.75,4,4,0,0,0-1-1.32,2.22,2.22,0,0,0-1.49-.52,2.15,2.15,0,0,0-1.47.55,4.64,4.64,0,0,0-1.07,1.49,10.12,10.12,0,0,0-.73,2.18,25,25,0,0,0-.45,2.62c-.11.92-.18,1.86-.22,2.82s-.06,1.88-.06,2.78c0,1.13,0,2.25.06,3.37s.12,2.17.25,3.18a23.64,23.64,0,0,0,.5,2.79,8.78,8.78,0,0,0,.85,2.21,4.46,4.46,0,0,0,1.27,1.46,3,3,0,0,0,1.76.53,2.37,2.37,0,0,0,1.8-.74,5.81,5.81,0,0,0,1.12-1.87,12.23,12.23,0,0,0,.61-2.47c.13-.88.22-1.72.28-2.5Z" transform="translate(0 -15.44)"/><path class="cls-1" d="M253.63,17.47l7.07-.28V42c0,.72,0,1.44.07,2.16a5.7,5.7,0,0,0,.46,2,3.33,3.33,0,0,0,1.18,1.42,3.89,3.89,0,0,0,2.25.56,3.42,3.42,0,0,0,2.11-.57,3.26,3.26,0,0,0,1.09-1.46,5.92,5.92,0,0,0,.41-2c0-.73.06-1.45.06-2.15V17.75l6.48-.56V40.63c0,.69,0,1.5-.05,2.44a17.47,17.47,0,0,1-.34,2.89,13.32,13.32,0,0,1-.95,3,8.07,8.07,0,0,1-1.9,2.63,9.13,9.13,0,0,1-3.15,1.86,13.82,13.82,0,0,1-4.73.71,9.42,9.42,0,0,1-4.51-1,9,9,0,0,1-3.13-2.76,12,12,0,0,1-1.83-4,19.59,19.59,0,0,1-.59-4.85Z" transform="translate(0 -15.44)"/><path class="cls-1" d="M288.31,17.19V47.72h12.25l-1.13,5.65H281.27V17.75Z" transform="translate(0 -15.44)"/><path class="cls-1" d="M298.79,22.84l.57-5.65h21.2L320,22.84h-6.76V53.09l-7.07.56V22.84Z" transform="translate(0 -15.44)"/><path class="cls-1" d="M324.26,17.47l7.06-.28V42c0,.72,0,1.44.07,2.16a5.7,5.7,0,0,0,.46,2A3.33,3.33,0,0,0,333,47.56a3.89,3.89,0,0,0,2.25.56,3.42,3.42,0,0,0,2.11-.57,3.26,3.26,0,0,0,1.09-1.46,6.17,6.17,0,0,0,.42-2c0-.73.06-1.45.06-2.15V17.75l6.47-.56V40.63c0,.69,0,1.5,0,2.44A18.65,18.65,0,0,1,345,46a13.32,13.32,0,0,1-1,3,8.07,8.07,0,0,1-1.9,2.63A9.13,9.13,0,0,1,339,53.42a13.82,13.82,0,0,1-4.73.71,9.42,9.42,0,0,1-4.51-1,9.13,9.13,0,0,1-3.13-2.76,12.15,12.15,0,0,1-1.83-4,19.59,19.59,0,0,1-.58-4.85Z" transform="translate(0 -15.44)"/><path class="cls-1" d="M351.89,53.65V17.47l8.57-.28a23.34,23.34,0,0,1,5.42.58,12,12,0,0,1,4.2,1.81,8.29,8.29,0,0,1,2.71,3.14,10,10,0,0,1,1,4.55,12.38,12.38,0,0,1-.38,3.18A9.23,9.23,0,0,1,372.31,33a8.59,8.59,0,0,1-1.64,2,12.27,12.27,0,0,1-2.1,1.5s.09.26.28.71l.74,1.79c.31.74.65,1.58,1,2.52s.78,1.9,1.19,2.88c.95,2.29,2.05,4.89,3.27,7.79L368.14,54l-6.45-16.49h-2.76V53.09Zm7-21.36h2.4a11,11,0,0,0,2-.18,4.33,4.33,0,0,0,1.71-.7,3.71,3.71,0,0,0,1.17-1.5,6.15,6.15,0,0,0,.44-2.57,5.73,5.73,0,0,0-.34-2.13,3.6,3.6,0,0,0-.94-1.39,3.53,3.53,0,0,0-1.42-.75,6.5,6.5,0,0,0-1.75-.23h-3.3Z" transform="translate(0 -15.44)"/><path class="cls-1" d="M379.12,17.19h18.37l-.56,5.65H386.19v8.62h7.6l0,6.08h-7.58V47.72h11.68l-.57,5.65H379.12Z" transform="translate(0 -15.44)"/><path class="cls-2" d="M133.86,39.09c0,.32-.83,1-2.47,2.06s-3.29,2-4.94,2.92l-2.51,1.38a6.35,6.35,0,0,1,.38,2.33,10,10,0,0,1-2.3,5.88A24.28,24.28,0,0,1,116.54,59a39.91,39.91,0,0,1-6.46,3.7,13.72,13.72,0,0,1-5.22,1.47,2,2,0,0,1-1.71-.83,3.39,3.39,0,0,1-.61-2.07,5.67,5.67,0,0,1,.56-2.42q1.49-3.36,15.9-18.89.9-.94,8.73-10.08t8.21-9.59c.26-.3.59-.64,1-1a13.75,13.75,0,0,1,1.64-1.31,3.21,3.21,0,0,1,1.64-.71q.9,0,.9,1.47a14.87,14.87,0,0,1-1.85,6.41q-.61,1.18-7.29,9.07l-6.81,8a.59.59,0,0,0-.14.38c0,.14.06.21.19.21q.81,0,4.32-2.18c2.34-1.46,3.56-2.18,3.65-2.18A.59.59,0,0,1,133.86,39.09Zm-12.15,7.26c-.29,0-2.06,1.92-5.32,5.74s-4.89,6-4.89,6.55c0,.29.23.43.67.43a4.91,4.91,0,0,0,2.18-1,27,27,0,0,0,3.25-2.63,16.74,16.74,0,0,0,3.09-4A9.23,9.23,0,0,0,122,46.83Q122,46.35,121.71,46.35Z" transform="translate(0 -15.44)"/><path class="cls-2" d="M140.74,39.57c0,.85.5,1.28,1.52,1.28a8.13,8.13,0,0,0,3.13-.72,16.12,16.12,0,0,1,1.85-.71c.09,0,.2.08.31.24a.83.83,0,0,1,.16.47c0,.35-.73.8-2.2,1.36a10.63,10.63,0,0,1-3.21.83c-.66,0-1.13,0-1.4,0s-.48.15-.64.5q-3.51,6.6-7,8.31a7.18,7.18,0,0,1-3.21.76,3.65,3.65,0,0,1-2.75-1.12,5,5,0,0,1-1.07-3.53,10.22,10.22,0,0,1,2.21-6.29,15.06,15.06,0,0,1,5-4.39,11.09,11.09,0,0,1,5.07-1.47c2.57.28,3.85,1.06,3.85,2.32a1.71,1.71,0,0,1-.26.93,1.33,1.33,0,0,1-.43.47,1.9,1.9,0,0,1-.4.12A.66.66,0,0,0,140.74,39.57Zm-3.89,2.18a17.08,17.08,0,0,0-3,2.89,5.08,5.08,0,0,0-1.45,2.87c0,.75.21,1.12.62,1.12q.94,0,3.49-2.92t2.54-4.82c0-.19-.12-.28-.36-.28A5.67,5.67,0,0,0,136.85,41.75Z" transform="translate(0 -15.44)"/><path class="cls-2" d="M152,33.11a.83.83,0,0,1,.62.31,1,1,0,0,1,.28.71,1.8,1.8,0,0,1-.47,1c-1.23,1.52-2.05,2.48-2.45,2.87s-.59.66-.59.79.1.19.31.19a16.16,16.16,0,0,0,2.54-.83,11.19,11.19,0,0,1,2.94-.84,2.37,2.37,0,0,1,1.47.6,1.83,1.83,0,0,1,.76,1.52q0,.91-2.89,4.22t-2.9,4.3c0,.12,0,.18.14.18a2.46,2.46,0,0,0,.86-.3,2.6,2.6,0,0,1,.76-.31c.35,0,.52.12.52.38,0,1-.78,2-2.33,2.94a7.79,7.79,0,0,1-3.91,1.47,3.77,3.77,0,0,1-2.59-.88,3,3,0,0,1-1-2.35,5.53,5.53,0,0,1,1.44-3.29,9.21,9.21,0,0,1,3-2.59c1-.51,1.55-.92,1.55-1.23a.27.27,0,0,0-.05-.19,9.49,9.49,0,0,1-3.42.85c-1.74,0-2.61-.51-2.61-1.52q0-1.76,3-4.6A14.09,14.09,0,0,1,152,33.11Z" transform="translate(0 -15.44)"/><path class="cls-2" d="M165.58,31.69q0-.77,4.08-1.38t8.73-.85q3.9-3.51,7-6l1-.86c.47,0,.71.35.71,1.05l.1,2.32a21.64,21.64,0,0,1-2,3.28h2.33q5.27,0,6.1,1a3,3,0,0,1,.83,1.63c0,.54-.54.83-1.62.86s-4.44,0-10.1,0a108.64,108.64,0,0,0-10.63,12.38c-1,1.33-1.84,2.52-2.57,3.56A23.72,23.72,0,0,1,167.93,51a1.62,1.62,0,0,1-1.12.64,3.7,3.7,0,0,1-2.65-1,3.42,3.42,0,0,1-1.1-2.57q0-4.17,11.63-15.14h-7.31C166.18,32.87,165.58,32.48,165.58,31.69Z" transform="translate(0 -15.44)"/><path class="cls-2" d="M199.58,48.58a25.7,25.7,0,0,1-4,2.47,9.23,9.23,0,0,1-3.94,1.19,3.44,3.44,0,0,1-2.54-1,3.19,3.19,0,0,1-.95-2.33q0-2.28,3.27-6.12c.19-.19.29-.34.29-.45s0-.17-.1-.17a3.56,3.56,0,0,0-.68.22,21.66,21.66,0,0,0-3.25,2.18c-1.78,1.31-3.5,2.7-5.18,4.18S179.6,51,178.89,51a1.68,1.68,0,0,1-1.57-.9,4.16,4.16,0,0,1-.49-2q0-3.51,5.48-10.68a105.38,105.38,0,0,1,11.46-12.79q6-5.62,7.64-5.62a2.23,2.23,0,0,1,1.54.69,2.41,2.41,0,0,1,.74,1.85q0,1.15-2.85,5.15t-6.36,8.4q-4.41,5.5-4.41,6a.17.17,0,0,0,.19.19,8.13,8.13,0,0,0,1.61-.79A32.7,32.7,0,0,1,195,39a12.91,12.91,0,0,1,2.31-.8,8.25,8.25,0,0,1,1.51-.12,4.3,4.3,0,0,1,1.76.38,1.2,1.2,0,0,1,.88,1.11q0,.74-3.44,4.7c-2.3,2.64-3.44,4.14-3.44,4.51s.15.54.47.54c.67,0,2-.69,3.89-2.08.73-.51,1.16-.79,1.28-.86a1,1,0,0,1,.43-.09.59.59,0,0,1,.67.66C201.27,47.17,200.7,47.73,199.58,48.58Z" transform="translate(0 -15.44)"/><path class="cls-2" d="M208.38,41.61l2.33-.24A1.43,1.43,0,0,1,212.32,43c0,.57-.52,1.2-1.56,1.9s-2.1,1.34-3.16,1.92-1.59,1-1.59,1.35.25.37.76.43c1.11,0,3.21-.88,6.31-2.66a39.29,39.29,0,0,1,5-2.65.58.58,0,0,1,.66.66c0,.32-1,1.1-3,2.35a52.83,52.83,0,0,1-6.93,3.61,16.91,16.91,0,0,1-6,1.73q-3.28,0-3.28-3.47A3.19,3.19,0,0,1,200.81,46a22.6,22.6,0,0,1,2.71-2c.9-.57,1.35-.92,1.35-1.07s-.22-.31-.66-.49c-1.33-.57-2-1.33-2-2.28q0-2.66,4.44-5.06a17.57,17.57,0,0,1,8.24-2.39,7,7,0,0,1,3.46.78,2.55,2.55,0,0,1,1.38,2.37c0,1.06-.74,2.05-2.21,3a7.34,7.34,0,0,1-3.16,1.37,1.22,1.22,0,0,1-.68-.19.5.5,0,0,1-.31-.42c0-.16.43-.42,1.3-.79s1.31-.7,1.31-1c0-.15-.23-.23-.69-.23A22.85,22.85,0,0,0,210.8,39c-2.53,1-3.79,1.7-3.79,2.11S207.47,41.61,208.38,41.61Z" transform="translate(0 -15.44)"/></svg>