<?xml version="1.0" encoding="utf-8"?>
<!-- Generator: Adobe Illustrator 22.0.0, SVG Export Plug-In . SVG Version: 6.00 Build 0)  -->
<svg version="1.1" id="Layer_1" xmlns="http://www.w3.org/2000/svg" xmlns:xlink="http://www.w3.org/1999/xlink" x="0px" y="0px"
	 viewBox="0 0 100 93.2" style="enable-background:new 0 0 100 93.2;" xml:space="preserve">
<g>
	<path d="M90.7,2H77.9c-1.2,0-2.2,1-2.2,2.2v4.5H24V4.2C24,3,23.1,2,21.8,2H9.2C8,2,7,3,7,4.2v13.2c0,1.2,1,2.2,2.2,2.2H22
		c1.2,0,2.2-1,2.2-2.2v-4.5H48c-0.2,5.3-13.2,30.3-21.4,45c-0.5,0.8-0.2,1.9,0.5,2.7c7.4,6.3,9.2,12.4,9.7,15.6H34
		c-1.2,0-2.2,1-2.2,2.2V89c0,1.2,1,2.2,2.2,2.2h32c1.2,0,2.2-1,2.2-2.2V78.3c0-1.2-1-2.2-2.2-2.2h-2.8c0.5-3.1,2.3-9.3,9.7-15.6
		c0.7-0.6,1-1.8,0.5-2.7C65.2,43.1,52.3,18,52,12.8h23.7v4.5c0,1.2,1,2.2,2.2,2.2h12.8c1.2,0,2.2-1,2.2-2.2V4.2
		C92.8,3,91.9,2,90.7,2z M19.8,15.2h-8.6v-9h8.6V15.2z M50,50.5c1.6,0,2.8,1.2,2.8,2.8s-1.2,2.8-2.8,2.8s-2.8-1.2-2.8-2.8
		C47.2,51.9,48.5,50.5,50,50.5z M64,86.6H36.1v-6.4H39h22.1H64V86.6z M59,76H40.9c-0.5-3.5-2.3-10.5-9.9-17.6
		c2.9-5.3,11.6-21.2,16.8-33.1v21.4C45,47.5,43,50.2,43,53.3c0,3.9,3.1,7,7,7s7-3.1,7-7c0-3.1-2.1-5.7-4.8-6.6V25.2
		C57.5,37,66,52.9,68.9,58.4C61.3,65.5,59.5,72.5,59,76z M88.6,15.2H80v-4c0-0.1,0-0.2,0-0.4c0-0.1,0-0.2,0-0.4V6.3h8.6V15.2z"/>
</g>
</svg>
