<?xml version="1.0" encoding="utf-8"?>
<!-- Generator: Adobe Illustrator 22.0.0, SVG Export Plug-In . SVG Version: 6.00 Build 0)  -->
<svg version="1.1" id="Layer_1" xmlns="http://www.w3.org/2000/svg" xmlns:xlink="http://www.w3.org/1999/xlink" x="0px" y="0px"
	 viewBox="0 0 100 125" style="enable-background:new 0 0 100 125;" xml:space="preserve">
<g>
	<path d="M90.7,3H77.9c-1.2,0-2.2,1-2.2,2.2v4.5H24V5.2C24,4,23.1,3,21.8,3H9.2C8,3,7,4,7,5.2v13.2c0,1.2,1,2.2,2.2,2.2H22
		c1.2,0,2.2-1,2.2-2.2v-4.5h23.8c-0.2,5.3-13.2,30.3-21.4,45c-0.5,0.8-0.2,1.9,0.5,2.7c7.4,6.3,9.2,12.4,9.7,15.6h-2.8
		c-1.2,0-2.2,1-2.2,2.2v10.6c0,1.2,1,2.2,2.2,2.2H66c1.2,0,2.2-1,2.2-2.2V79.3c0-1.2-1-2.2-2.2-2.2h-2.8c0.5-3.1,2.3-9.3,9.7-15.6
		c0.7-0.6,1-1.8,0.5-2.7c-8.2-14.7-21.1-39.8-21.4-45h23.7v4.5c0,1.2,1,2.2,2.2,2.2h12.8c1.2,0,2.2-1,2.2-2.2V5.2
		C92.8,4,91.9,3,90.7,3z M19.8,16.2h-8.6V7.2h8.6V16.2z M50,51.5c1.6,0,2.8,1.2,2.8,2.8c0,1.6-1.2,2.8-2.8,2.8
		c-1.6,0-2.8-1.2-2.8-2.8C47.2,52.9,48.5,51.5,50,51.5z M64,87.6H36.1v-6.4H39h22.1H64C64,81.2,64,87.6,64,87.6z M59,77H40.9
		c-0.5-3.5-2.3-10.5-9.9-17.6c2.9-5.3,11.6-21.2,16.8-33.1v21.4C45,48.5,43,51.2,43,54.3c0,3.9,3.1,7,7,7s7-3.1,7-7
		c0-3.1-2.1-5.7-4.8-6.6V26.2C57.5,38,66,53.9,68.9,59.4C61.3,66.5,59.5,73.5,59,77z M88.6,16.2H80v-4c0-0.1,0-0.2,0-0.4
		c0-0.1,0-0.2,0-0.4V7.3h8.6V16.2z"/>
</g>
</svg>
