<?xml version="1.0" encoding="utf-8"?>
<!-- Generator: Adobe Illustrator 22.0.0, SVG Export Plug-In . SVG Version: 6.00 Build 0)  -->
<svg version="1.1" id="Layer_1" xmlns="http://www.w3.org/2000/svg" xmlns:xlink="http://www.w3.org/1999/xlink" x="0px" y="0px"
	 viewBox="0 0 100 93.2" style="enable-background:new 0 0 100 93.2;" xml:space="preserve">
<g>
	<path d="M13.3,47.5c-0.5-0.5-1.4-0.5-1.9,0c-0.3,0.3-0.4,0.6-0.4,1v38.1c0,0.8,0.6,1.4,1.4,1.4h38.1c0.8,0,1.4-0.6,1.4-1.4
		c0-0.4-0.1-0.7-0.4-1L13.3,47.5z M13.7,85.3V51.8l33.5,33.5H13.7z"/>
	<path d="M20.5,79.8h10.9c0.8,0,1.4-0.6,1.4-1.4c0-0.4-0.1-0.7-0.4-1L21.5,66.6c-0.5-0.5-1.4-0.5-1.9,0c-0.3,0.3-0.4,0.6-0.4,1v10.9
		C19.2,79.2,19.8,79.8,20.5,79.8z M21.9,70.9l6.2,6.2h-6.2C21.9,77.1,21.9,70.9,21.9,70.9z"/>
	<rect x="26" y="11.7" width="2.7" height="2.7"/>
	<rect x="31.4" y="11.7" width="2.7" height="2.7"/>
	<rect x="36.9" y="11.7" width="2.7" height="2.7"/>
	<path d="M39,30.9c-0.5,0.2-0.8,0.7-0.8,1.2v15c0,0.5,0.3,1,0.8,1.2l12.3,5.4c0.4,0.2,0.8,0.2,1.1,0l0,0l12.3-5.4
		c0.5-0.2,0.8-0.7,0.8-1.2v-15c0-0.5-0.3-1-0.8-1.2l0,0l-12.3-5.4c-0.4-0.2-0.8-0.2-1.1,0L39,30.9L39,30.9z M50.5,50.5L41,46.2v-12
		l9.5,4.2V50.5z M62.8,46.2l-9.5,4.2v-12l9.5-4.2V46.2z M51.9,28.2l8.9,4l-8.9,4l-8.9-4L51.9,28.2z"/>
	<rect x="50.5" y="58" width="2.7" height="6.8"/>
	<rect x="50.5" y="15.8" width="2.7" height="6.8"/>
	<rect x="30.2" y="26.3" transform="matrix(0.431 -0.9024 0.9024 0.431 -8.6166 45.2581)" width="2.7" height="6.3"/>
	<rect x="69" y="28.1" transform="matrix(0.9024 -0.431 0.431 0.9024 -5.65 33.9731)" width="6.3" height="2.7"/>
	<rect x="28.4" y="49.9" transform="matrix(0.9023 -0.431 0.431 0.9023 -19.0096 18.604)" width="6.3" height="2.7"/>
	<path d="M91.4,68.9h-8.2V47.7l8-8c2-2,2-5.3,0-7.4s-5.3-2-7.4,0l0,0l-0.6,0.6V21.3c0-0.4-0.1-0.7-0.4-1L69.2,6.7
		c-0.3-0.3-0.6-0.4-1-0.4H26c-3,0-5.4,2.4-5.4,5.4v39.5h2.7V11.7c0-1.5,1.2-2.7,2.7-2.7h40.9v8.2c0,3,2.4,5.4,5.4,5.4h8.2v13.1
		L59.1,57.1c-0.2,0.2-0.3,0.4-0.4,0.7l-1.4,6.8c-0.1,0.7,0.3,1.5,1.1,1.6c0.2,0,0.4,0,0.5,0l6.8-1.4c0.3-0.1,0.5-0.2,0.7-0.4l14-14
		v18.5H53.2c-0.8,0-1.4,0.6-1.4,1.4v4.1H45v2.7h6.8v4.1c0,0.8,0.6,1.4,1.4,1.4h38.1c0.8,0,1.4-0.6,1.4-1.4V70.3
		C92.7,69.5,92.1,68.9,91.4,68.9z M69.6,17.2V11l9,9h-6.2C70.8,19.9,69.6,18.7,69.6,17.2z M62,58l21.2-21.2l3.5,3.5L65.5,61.6L62,58
		z M87.5,33.5c1.4,0,2.5,1.1,2.5,2.5c0,0.7-0.3,1.3-0.7,1.8l-0.6,0.6l-3.5-3.5l0.6-0.6C86.2,33.8,86.8,33.5,87.5,33.5z M60.9,60.8
		l1.8,1.8l-2.3,0.5L60.9,60.8z M90,79.8H54.6v-8.2h2.7v2.7H60v-2.7h2.7v2.7h2.7v-2.7h2.7v2.7h2.7v-2.7h2.7v2.7h2.7v-2.7h2.7v2.7h2.7
		v-2.7h2.7v2.7H87v-2.7h3V79.8z"/>
</g>
</svg>
