<?xml version="1.0" encoding="utf-8"?>
<!-- Generator: Adobe Illustrator 22.0.0, SVG Export Plug-In . SVG Version: 6.00 Build 0)  -->
<svg version="1.1" id="Layer_1" xmlns="http://www.w3.org/2000/svg" xmlns:xlink="http://www.w3.org/1999/xlink" x="0px" y="0px"
	 viewBox="0 0 100 93.2" style="enable-background:new 0 0 100 93.2;" xml:space="preserve">
<path d="M51.9,12.8c0.7,0,1.2-0.6,1.2-1.2V7.9c0-0.7-0.6-1.2-1.2-1.2s-1.2,0.6-1.2,1.2v3.7C50.7,12.3,51.2,12.8,51.9,12.8z"/>
<path d="M51.9,79.3c-0.7,0-1.2,0.6-1.2,1.2v3.7c0,0.7,0.6,1.2,1.2,1.2s1.2-0.6,1.2-1.2v-3.7C53.1,79.9,52.6,79.3,51.9,79.3z"/>
<path d="M90.1,44.9h-3.7c-0.7,0-1.2,0.6-1.2,1.2s0.6,1.2,1.2,1.2h3.7c0.7,0,1.2-0.6,1.2-1.2S90.8,44.9,90.1,44.9z"/>
<path d="M17.4,44.9h-3.7c-0.7,0-1.2,0.6-1.2,1.2s0.6,1.2,1.2,1.2h3.7c0.7,0,1.2-0.6,1.2-1.2S18.1,44.9,17.4,44.9z"/>
<path d="M26.7,22.6c0.2,0.2,0.6,0.4,0.9,0.4c0.3,0,0.6-0.1,0.9-0.4c0.5-0.5,0.5-1.3,0-1.7l-2.6-2.6c-0.5-0.5-1.3-0.5-1.7,0
	c-0.5,0.5-0.5,1.3,0,1.7L26.7,22.6z"/>
<path d="M26.7,69.6l-2.6,2.6c-0.5,0.5-0.5,1.3,0,1.7c0.2,0.2,0.6,0.4,0.9,0.4c0.3,0,0.6-0.1,0.9-0.4l2.6-2.6c0.5-0.5,0.5-1.3,0-1.7
	C27.9,69.1,27.1,69.1,26.7,69.6z"/>
<path d="M76.3,22.9c0.3,0,0.6-0.1,0.9-0.4l2.6-2.6c0.5-0.5,0.5-1.3,0-1.7c-0.5-0.5-1.3-0.5-1.7,0l-2.6,2.6c-0.5,0.5-0.5,1.3,0,1.7
	C75.7,22.8,76,22.9,76.3,22.9z"/>
<path d="M76.2,63.6c-0.2-0.2-0.5-0.4-0.9-0.4c-0.3,0-0.6,0.1-0.9,0.3l-2.7-2.9c3-4.1,4.8-9.1,4.8-14.6c0-13.6-11-24.6-24.6-24.6
	s-24.6,11-24.6,24.6s11,24.6,24.6,24.6c4.9,0,9.5-1.4,13.3-3.9l2.7,2.8l-0.2,0.2l0,0c-0.4,0.5-0.4,1.1,0,1.6l11.6,12.9
	c0.7,0.8,1.7,1.2,2.8,1.2h0c1.1,0,2.1-0.4,2.9-1.1l2.3-2.1c0.8-0.8,1.3-1.8,1.4-2.9c0-1-0.3-2-1-2.7L76.2,63.6z M29.8,46.1
	c0-12.2,9.9-22.2,22.2-22.2s22.2,9.9,22.2,22.2s-9.9,22.2-22.2,22.2S29.8,58.3,29.8,46.1z M67.3,65.3c1-0.8,2-1.7,2.9-2.7l2.6,2.7
	l-3,2.7L67.3,65.3z M85.8,80.4l-2.3,2.1c-0.3,0.3-0.8,0.5-1.2,0.5c-0.4,0-0.8-0.2-1-0.4L70.4,70.7l4.9-4.4L86,78.2
	c0.3,0.3,0.4,0.7,0.3,1C86.4,79.6,86.2,80.1,85.8,80.4z"/>
<path d="M51.9,27.6c-10.2,0-18.5,8.3-18.5,18.5s8.3,18.5,18.5,18.5s18.5-8.3,18.5-18.5S62.1,27.6,51.9,27.6z M51.9,62.1
	c-8.8,0-16-7.2-16-16c0-8.8,7.2-16,16-16s16,7.2,16,16C67.9,54.9,60.7,62.1,51.9,62.1z"/>
<path d="M60.1,36.9l-11.6,4.6c-0.3,0.1-0.5,0.3-0.6,0.6l-5.6,11.4c-0.2,0.5-0.1,1,0.2,1.4c0.2,0.3,0.6,0.4,0.9,0.4
	c0.2,0,0.3,0,0.5-0.1l11.6-4.6c0.3-0.1,0.5-0.3,0.6-0.6l5.6-11.4c0.2-0.5,0.1-1-0.2-1.4C61.1,36.9,60.6,36.7,60.1,36.9z M49.1,45
	l3.9,3.9l-7.2,2.9L49.1,45z M54.7,47.1l-3.9-3.9l7.2-2.9L54.7,47.1z"/>
</svg>
