<?xml version="1.0" encoding="utf-8"?>
<!-- Generator: Adobe Illustrator 22.0.0, SVG Export Plug-In . SVG Version: 6.00 Build 0)  -->
<svg version="1.1" id="Layer_1" xmlns="http://www.w3.org/2000/svg" xmlns:xlink="http://www.w3.org/1999/xlink" x="0px" y="0px"
	 viewBox="0 0 512 410" style="enable-background:new 0 0 512 410;" xml:space="preserve">
<g>
	<path d="M496.3,13.2H16.7c-3.3,0-6,2.7-6,6v368.6c0,3.3,2.7,6,6,6h479.5c3.3,0,6-2.7,6-6V19.2C502.3,15.8,499.6,13.2,496.3,13.2z
		 M490.3,25.2V85H22.7V25.2H490.3z M22.7,381.8V97h467.5v284.8H22.7z"/>
	<path d="M402.6,282.1h-29c-2.9-11.4-7.4-22.2-13.4-32.3l20.5-20.5c1.1-1.1,1.8-2.7,1.8-4.2s-0.6-3.1-1.8-4.2l-33.4-33.3
		c-1.1-1.1-2.6-1.8-4.2-1.8l0,0c-1.6,0-3.1,0.6-4.2,1.8L318.4,208c-10.2-6.1-21-10.5-32.3-13.4v-28.9c0-3.3-2.7-6-6-6h-47.2
		c-3.3,0-6,2.7-6,6v28.9c-11.3,2.8-22.2,7.3-32.3,13.4l-20.5-20.5c-2.3-2.3-6.1-2.3-8.5,0l-33.4,33.3c-1.1,1.1-1.8,2.7-1.8,4.2
		s0.6,3.1,1.8,4.2l20.5,20.5c-6,10.1-10.5,20.9-13.4,32.3h-29c-3.3,0-6,2.7-6,6v24.7c0,3.3,2.7,6,6,6s6-2.7,6-6V294H144
		c2.8,0,5.3-2,5.9-4.8c2.8-13.3,8-25.8,15.4-37.1c1.6-2.4,1.2-5.5-0.8-7.5L145,225.1l24.9-24.9l19.6,19.6c2,2,5.1,2.3,7.5,0.8
		c11.4-7.5,23.9-12.6,37.1-15.4c2.8-0.6,4.8-3,4.8-5.9v-27.7h35.2v27.7c0,2.8,2,5.3,4.8,5.9c13.2,2.7,25.6,7.9,37.1,15.4
		c2.4,1.5,5.5,1.2,7.5-0.8l19.6-19.6l24.9,24.9l-19.6,19.6c-2,2-2.3,5.2-0.8,7.5c7.5,11.4,12.7,23.8,15.4,37.1
		c0.6,2.8,3,4.8,5.9,4.8h27.7v18.7c0,3.3,2.7,6,6,6s6-2.7,6-6v-24.7C408.6,284.8,405.9,282.1,402.6,282.1z"/>
	<path d="M256.5,242.2c-38.3,0-69.5,31.2-69.5,69.5v1.2c0,3.3,2.7,6,6,6s6-2.7,6-6v-1.2c0-31.7,25.8-57.5,57.5-57.5
		S314,280,314,311.7v1.2c0,3.3,2.7,6,6,6s6-2.7,6-6v-1.2C326,273.4,294.8,242.2,256.5,242.2z"/>
	<path d="M67.7,74.3C78.3,74.3,87,65.6,87,55s-8.7-19.2-19.3-19.2S48.5,44.4,48.4,55C48.5,65.6,57.1,74.3,67.7,74.3z M67.7,47.8
		c4,0,7.3,3.2,7.3,7.2s-3.3,7.3-7.3,7.3S60.4,59,60.4,55C60.5,51,63.7,47.8,67.7,47.8z"/>
	<path d="M146.7,74.3c10.6,0,19.2-8.7,19.2-19.3s-8.6-19.2-19.2-19.2s-19.3,8.6-19.3,19.2C127.5,65.6,136.1,74.3,146.7,74.3z
		 M146.7,47.8c4,0,7.2,3.2,7.2,7.2s-3.3,7.3-7.2,7.3c-4,0-7.3-3.3-7.3-7.3C139.5,51,142.7,47.8,146.7,47.8z"/>
</g>
</svg>
