<svg id="Layer_1" data-name="Layer 1" xmlns="http://www.w3.org/2000/svg" viewBox="0 0 92.25 92.27"><title>icon_members</title><path d="M97.27,33.12a2,2,0,0,0-1.72-1.35l-7.5-1.11-3.57-7.25a2.17,2.17,0,0,0-1.85-1.24h0a1.89,1.89,0,0,0-1.84,1.24l-3.32,7.25-7.63,1.23a1.83,1.83,0,0,0-1.6,1.48,2.38,2.38,0,0,0,.49,2.09l5.66,5.66-1.23,8A2.36,2.36,0,0,0,74,51.21a2.13,2.13,0,0,0,1.23.37,2.4,2.4,0,0,0,1-.25L83,47.52l6.77,3.69A2,2,0,0,0,92,51.09a2.22,2.22,0,0,0,.86-2.1l-1.35-8L97,35.22A2.43,2.43,0,0,0,97.27,33.12Zm-9.72,5.66a2.61,2.61,0,0,0-.61,1.85l.86,4.8-4.06-2.22a1.89,1.89,0,0,0-2,0l-3.93,2.22.73-4.8A2.14,2.14,0,0,0,78,38.78l-3.45-3.44,4.68-.74a2.3,2.3,0,0,0,1.6-1.23l2-4.31,2,4.19a1.77,1.77,0,0,0,1.6,1.1L91,35Z" transform="translate(-5.16 -0.4)"/><path d="M42.77,19.47l-1.23,8a2.37,2.37,0,0,0,.87,2.1,2.08,2.08,0,0,0,1.23.37,2.4,2.4,0,0,0,1-.25l6.77-3.81,6.76,3.69a2,2,0,0,0,2.22-.13,2.24,2.24,0,0,0,.86-2.09l-1.36-8.12,5.54-5.78a2.19,2.19,0,0,0,.49-2.09A2,2,0,0,0,64.18,10L56.55,8.89,53.11,1.63A2.16,2.16,0,0,0,51.26.4h0a1.88,1.88,0,0,0-1.84,1.23L46.1,8.89l-7.63,1.23a1.81,1.81,0,0,0-1.6,1.48,2.13,2.13,0,0,0,.49,2.09ZM47.7,13a2.31,2.31,0,0,0,1.59-1.23l2-4.31,2,4.19a1.76,1.76,0,0,0,1.6,1.1l4.68.62-3.45,3.81A2.43,2.43,0,0,0,55.45,19l.86,4.79-4.06-2.21a1.89,1.89,0,0,0-2,0L46.34,23.9l.74-4.8a2.14,2.14,0,0,0-.62-1.85L43,13.81Z" transform="translate(-5.16 -0.4)"/><path d="M29,51.09a2.27,2.27,0,0,0,.86-2.1L28.5,41,34,35.22a2.21,2.21,0,0,0,.49-2.1,2,2,0,0,0-1.72-1.35l-7.75-1.11-3.45-7.25a2.18,2.18,0,0,0-2-1.24,1.91,1.91,0,0,0-1.85,1.24l-3.32,7.25L6.85,31.89a1.84,1.84,0,0,0-1.6,1.48,2.14,2.14,0,0,0,.49,2.09l5.66,5.66-1.23,8A2.36,2.36,0,0,0,11,51.21a2.13,2.13,0,0,0,1.23.37,2.4,2.4,0,0,0,1-.25L20,47.52l6.76,3.69A2.41,2.41,0,0,0,29,51.09Zm-8.12-7.76a1.93,1.93,0,0,0-2,0L15,45.55l.74-4.8a2.12,2.12,0,0,0-.62-1.84l-3.44-3.45,4.67-.74a2.3,2.3,0,0,0,1.6-1.23l2-4.3,2,4.18a1.75,1.75,0,0,0,1.6,1.11l4.67.61-3.44,3.57a2.43,2.43,0,0,0-.62,1.85l.87,4.79Z" transform="translate(-5.16 -0.4)"/><path d="M63.32,66.34H58.64V63a14.65,14.65,0,1,0-22-12.67A15,15,0,0,0,43.88,63v3.32H39.21c-8.37,0-15.26,6.27-15.26,14V90.58A2.16,2.16,0,0,0,26,92.67H76.36a2.16,2.16,0,0,0,2.09-2.09V80.36C78.57,72.74,71.68,66.34,63.32,66.34ZM40.81,50.47a10.46,10.46,0,1,1,14.88,9.47,2.16,2.16,0,0,0-1.23,1.85v6.64a3.2,3.2,0,1,1-6.4,0V61.79a1.9,1.9,0,0,0-1.23-1.85A10.43,10.43,0,0,1,40.81,50.47ZM74.27,88.61h-9V81.47H60.86v7.14H41.67V81.47H37.24v7.14h-9V80.49c0-5.42,4.92-9.84,11.07-9.84h4.92c.12.36.25.61.37,1,0,.12,0,.12.12.25a7.1,7.1,0,0,0,.49.86.12.12,0,0,0,.13.12c.24.25.37.49.61.74l.13.12a3.35,3.35,0,0,0,.73.62l.13.12c.24.25.61.37.86.61h.12c.25.13.62.25.86.37a.13.13,0,0,1,.13.13,2.87,2.87,0,0,0,1,.24h.25c.36,0,.73.13,1.1.13a3.25,3.25,0,0,0,1.11-.13h.25c.37-.12.73-.12,1-.24a.12.12,0,0,0,.12-.13,4.79,4.79,0,0,0,.86-.37h.13a3.7,3.7,0,0,0,.86-.61l.12-.12a3.12,3.12,0,0,1,.74-.62l.12-.12c.25-.25.37-.49.62-.74a.12.12,0,0,1,.12-.12,3,3,0,0,0,.49-.86c0-.13,0-.13.13-.25.12-.37.24-.62.36-1H63.2c6,0,11.07,4.42,11.07,9.84v8.12Z" transform="translate(-5.16 -0.4)"/></svg>