<?xml version="1.0" encoding="utf-8"?>
<!-- Generator: Adobe Illustrator 22.0.0, SVG Export Plug-In . SVG Version: 6.00 Build 0)  -->
<svg version="1.1" id="Layer_1" xmlns="http://www.w3.org/2000/svg" xmlns:xlink="http://www.w3.org/1999/xlink" x="0px" y="0px"
	 viewBox="0 0 512 410" style="enable-background:new 0 0 512 410;" xml:space="preserve">
<path d="M397.7,127.6c-1.4-2.3-3.5-4.2-6-5.3V80.8c0-39.6-32.1-71.8-71.8-71.8s-71.8,32.1-71.8,71.8v254.4
	c0,28.8-23.4,52.2-52.2,52.2s-52.2-23.4-52.2-52.2v-30.9l64.4-115.9v-0.5v-0.5c0.4-0.7,0.7-1.4,0.8-2.2V15.5c0-3.6-2.9-6.5-6.5-6.5
	H72c-3.6,0-6.5,2.9-6.5,6.5v169.6c0.1,0.7,0.2,1.4,0.5,2.1v0.5v0.5l64.8,116v30.9c0,36,29.2,65.2,65.2,65.2s65.2-29.2,65.2-65.2
	V80.8c0-32.4,26.3-58.7,58.7-58.7s58.7,26.3,58.7,58.7v41.5c-2.5,1.2-4.6,3-6,5.3l-58.2,93.2c-1,1.6-1.2,3.6-0.7,5.4l30.1,96.3
	c-2.6,0.9-4.3,3.3-4.3,6.1v65.2c0,3.6,2.9,6.5,6.5,6.5h78.3c3.6,0,6.5-2.9,6.5-6.5v-65.2c0-2.7-1.7-5.1-4.3-6.1l30.4-96.3
	c0.6-1.8,0.3-3.8-0.7-5.4L397.7,127.6z M176.4,22H196v156.5h-19.6V22z M143.8,22h19.6v156.5h-19.6V22z M111.2,22h19.6v156.5h-19.6
	V22z M78.6,22h19.6v156.5H78.6V22z M83.1,191.6h108.3l-32.6,58.7h-43.1L83.1,191.6z M123,263.4h28.6l-14.3,25.7L123,263.4z
	 M385.1,217.7c3.6,0,6.5,2.9,6.5,6.5c0,3.6-2.9,6.5-6.5,6.5s-6.5-2.9-6.5-6.5C378.6,220.7,381.5,217.7,385.1,217.7z M417.8,387.3
	h-65.2v-52.2h65.2V387.3z M412.9,322.1h-55.6L327,225.2l51.6-82.5v63.2c-10.2,3.6-15.5,14.8-11.9,25c3.6,10.2,14.8,15.5,25,11.9
	c10.2-3.6,15.5-14.8,11.9-25c-2-5.6-6.4-10-11.9-11.9v-63.2l51.6,82.5L412.9,322.1z"/>
</svg>
