<?xml version="1.0" encoding="utf-8"?>
<!-- Generator: Adobe Illustrator 22.0.0, SVG Export Plug-In . SVG Version: 6.00 Build 0)  -->
<svg version="1.1" id="Layer_1" xmlns="http://www.w3.org/2000/svg" xmlns:xlink="http://www.w3.org/1999/xlink" x="0px" y="0px"
	 viewBox="0 0 100 93.2" style="enable-background:new 0 0 100 93.2;" xml:space="preserve">
<g>
	<path d="M69.7,30.3c-0.3-0.8-1.1-1.4-2-1.4H57.3L54,19l0,0c-0.3-0.9-1.1-1.4-2-1.4c-0.9,0-1.7,0.6-2,1.4l-3.3,9.9H36.5
		c-0.9,0-1.7,0.6-2,1.4c-0.2,0.9,0.1,1.8,0.8,2.3l8.4,6.1l-3.3,9.9c-0.3,0.9,0,1.8,0.7,2.3c0.7,0.5,1.7,0.5,2.4,0l8.4-6.1l8.4,6.1
		c0.7,0.5,1.7,0.5,2.4,0c0.7-0.6,1-1.5,0.8-2.3l-3.2-9.9l8.4-6.1C69.6,32.2,70,31.2,69.7,30.3z M57.1,36.4c-0.7,0.6-1,1.5-0.8,2.3
		l1.9,5.9l-5-3.6c-0.7-0.5-1.7-0.5-2.4,0l-5,3.6l1.9-5.8c0.2-0.9-0.1-1.8-0.8-2.3l-5-3.6h6.1c0.9,0,1.7-0.6,2-1.4l2-6l2,6
		c0.3,0.8,1.1,1.4,2,1.4h6.2L57.1,36.4z"/>
	<path d="M38.8,86.8l-3-6.2c-0.4-0.7-1.1-1.1-1.9-1.1l-7.1,0.6l6.9-13l-3.4-1.8l-8.6,16.2c-0.3,0.6-0.3,1.4,0.1,2
		c0.4,0.6,1.1,0.9,1.8,0.9l9.3-0.8l4.1,8.5c0.3,0.7,1,1.1,1.7,1.1h0c0.7,0,1.4-0.4,1.7-1l10-18.8l-3.4-1.8L38.8,86.8z"/>
	<path d="M87.2,35.2C87.2,15.7,71.4,0,52,0S16.9,15.7,16.9,35.1c0,19.4,15.7,35.1,35.1,35.2c0,0,0,0,0,0
		C71.4,70.3,87.1,54.6,87.2,35.2z M52,66.4c-17.3,0-31.3-14-31.3-31.3S34.7,3.9,52,3.9c17.3,0,31.3,14,31.3,31.3c0,0,0,0,0,0
		C83.3,52.4,69.3,66.4,52,66.4z"/>
	<path d="M52,7.5c-6.6,0-13,2.4-18,6.7l2.5,2.9c9.9-8.6,24.9-7.5,33.5,2.4s7.5,24.9-2.4,33.5s-24.9,7.5-33.5-2.4
		c-7.8-9-7.7-22.3,0.1-31.2l-2.9-2.6c-10.1,11.5-9,28.9,2.5,39s28.9,9,39-2.5s9-28.9-2.5-39C65.2,10,58.7,7.5,52,7.5z"/>
	<path d="M74,65.3l-3.4,1.8l6.9,13l-7.1-0.6c-0.8-0.1-1.6,0.4-1.9,1.1l-3,6.2l-8.2-15.4l-3.4,1.8l10,18.8c0.3,0.6,1,1,1.7,1h0
		c0.7,0,1.4-0.4,1.7-1.1l4.1-8.5l9.3,0.8c1.1,0.1,2-0.7,2.1-1.8c0-0.4,0-0.7-0.2-1.1L74,65.3z"/>
</g>
</svg>
