<?xml version="1.0" encoding="utf-8"?>
<!-- Generator: Adobe Illustrator 22.0.0, SVG Export Plug-In . SVG Version: 6.00 Build 0)  -->
<svg version="1.1" id="Layer_1" xmlns="http://www.w3.org/2000/svg" xmlns:xlink="http://www.w3.org/1999/xlink" x="0px" y="0px"
	 viewBox="0 0 100 93.2" style="enable-background:new 0 0 100 93.2;" xml:space="preserve">
<g>
	<path d="M16.8,52v19.7c0,0.7,0.6,1.3,1.3,1.3h10.4c0.7,0,1.3-0.6,1.3-1.3V61.2c3.7-0.2,6.5-3.2,6.5-6.9v-2.2h2.4l27.6,10v0.4
		c0,2.2,1.8,3.9,3.9,3.9c2.2,0,3.9-1.8,3.9-3.9V48c3.5-0.7,5.8-4.2,5.1-7.7c-0.5-2.6-2.5-4.6-5.1-5.1V20.8c0-2.2-1.8-3.9-3.9-3.9
		c-2.2,0-3.9,1.8-3.9,3.9v0.5L38.7,33.8H18.1c-5,0-9.1,4.1-9.1,9.2C9.1,47.5,12.4,51.3,16.8,52z M74.2,38c2,0.7,3.1,2.9,2.4,5
		c-0.4,1.1-1.3,2-2.4,2.4V38z M69,61.2V20.8c0-0.7,0.6-1.3,1.3-1.3c0.7,0,1.3,0.6,1.3,1.3v41.7c0,0.7-0.6,1.3-1.3,1.3
		c-0.7,0-1.3-0.6-1.3-1.3V61.2z M40.3,36l26.1-11.9v35.2l-26.1-9.5C40.3,49.8,40.3,36,40.3,36z M27.3,70.3h-7.8v-2.6H22v-2.6h-2.6
		v-2.6H22v-2.6h-2.6v-2.6H22v-2.6h-2.6v-2.6h7.8L27.3,70.3L27.3,70.3z M33.8,54.3c0,2.2-1.7,4.1-3.9,4.3v-6.5h3.9V54.3z M13.5,38.4
		c1.2-1.2,2.9-1.9,4.6-1.9h19.6v13H18.1c-3.6,0-6.5-2.9-6.5-6.5C11.6,41.2,12.3,39.6,13.5,38.4z"/>
	<path d="M23.3,46.9c2.2,0,3.9-1.8,3.9-3.9s-1.7-4-3.9-4s-3.9,1.8-3.9,3.9S21.2,46.9,23.3,46.9z M23.3,41.7c0.7,0,1.3,0.6,1.3,1.3
		s-0.6,1.3-1.3,1.3S22,43.7,22,43C22,42.2,22.6,41.7,23.3,41.7z"/>
	<circle cx="45.5" cy="66.4" r="2.6"/>
	<path d="M87,13.6c-0.4-0.6-1.2-0.8-1.8-0.4l0,0l-7.8,5.2c-0.6,0.4-0.8,1.2-0.4,1.8c0.4,0.6,1.2,0.8,1.8,0.4l0,0l7.8-5.2
		C87.2,15,87.4,14.2,87,13.6L87,13.6z"/>
	<path d="M85.7,29.9l-6.5,1.3c-0.7,0.1-1.2,0.8-1,1.5c0.1,0.6,0.7,1,1.3,1c0.1,0,0.2,0,0.3,0l6.5-1.3c0.7-0.2,1.1-0.9,1-1.6
		C87,30.3,86.4,29.8,85.7,29.9L85.7,29.9z"/>
	<path d="M86.2,50.8l-6.5-1.3c-0.7-0.2-1.4,0.3-1.6,1s0.3,1.4,1,1.6h0.1l6.5,1.3c0.1,0,0.2,0,0.3,0c0.7,0,1.3-0.6,1.3-1.3
		C87.2,51.5,86.8,50.9,86.2,50.8z"/>
	<path d="M86.5,65.3l-7.8-3.9c-0.6-0.3-1.4-0.1-1.7,0.6c-0.3,0.6-0.1,1.4,0.6,1.7l7.8,3.9c0.6,0.3,1.4,0.1,1.7-0.6
		C87.4,66.4,87.2,65.6,86.5,65.3z"/>
	<path d="M10.3,31.2c0.3,0,0.7-0.1,0.9-0.4L23,19.1c0.5-0.5,0.5-1.3,0-1.8s-1.3-0.5-1.8,0L9.4,29c-0.5,0.5-0.5,1.3,0,1.8
		C9.6,31.1,10,31.2,10.3,31.2z"/>
	<circle cx="20.7" cy="28.6" r="2.6"/>
	<circle cx="11.6" cy="19.5" r="2.6"/>
	<path d="M49.4,58.6H39c-0.7,0-1.3,0.6-1.3,1.3v10.4c0,0.3,0.1,0.7,0.4,0.9L49.8,83c0.5,0.5,1.3,0.5,1.8,0l0,0L62,72.6
		c0.5-0.5,0.5-1.3,0-1.8L50.3,59C50.1,58.7,49.8,58.6,49.4,58.6z M50.8,80.2L40.3,69.8v-8.6h8.6l10.4,10.4L50.8,80.2z"/>
	<path d="M54.6,13c0.7,0,1.3-0.6,1.3-1.3V6.5c0-0.7-0.6-1.3-1.3-1.3h-26c-0.7,0-1.3,0.6-1.3,1.3v5.2c0,0.7,0.6,1.3,1.3,1.3
		c0.7,0,1.3,0.6,1.3,1.3s-0.6,1.3-1.3,1.3c-0.7,0-1.3,0.6-1.3,1.3v5.2c0,0.7,0.6,1.3,1.3,1.3h26.1c0.7,0,1.3-0.6,1.3-1.3v-5.2
		c0-0.7-0.6-1.3-1.3-1.3s-1.3-0.6-1.3-1.3S53.9,13,54.6,13z M53.3,10.6c-2,0.7-3.1,3-2.4,5c0.4,1.1,1.3,2,2.4,2.4v2.8h-6.5v-1.3
		h-2.6v1.3H29.9V18c2-0.7,3.1-3,2.4-5c-0.4-1.1-1.3-2-2.4-2.4V7.8h23.5v2.8H53.3z"/>
	<rect x="44.2" y="9.1" width="2.6" height="2.6"/>
	<rect x="44.2" y="14.3" width="2.6" height="2.6"/>
</g>
</svg>
