<?xml version="1.0" encoding="utf-8"?>
<!-- Generator: Adobe Illustrator 22.0.0, SVG Export Plug-In . SVG Version: 6.00 Build 0)  -->
<svg version="1.1" id="Layer_1" xmlns="http://www.w3.org/2000/svg" xmlns:xlink="http://www.w3.org/1999/xlink" x="0px" y="0px"
	 viewBox="0 0 512 410" style="enable-background:new 0 0 512 410;" xml:space="preserve">
<path d="M64,9C42.2,9,24.6,26.6,24.6,48.4V236c0,21.8,17.6,39.4,39.4,39.4h385.6c21.8,0,39.4-17.6,39.4-39.4V48.4
	c0-21.8-17.6-39.4-39.4-39.4L64,9z M64,25.2h385.6c12.7,0,23.2,10.5,23.2,23.2V236c0,12.7-10.5,23.2-23.2,23.2H64
	c-12.7,0-23.2-10.5-23.2-23.2V48.4C40.8,35.7,51.3,25.2,64,25.2z M225.8,71.5c-4.2-0.1-8.4,3-8.4,8.1v125.1c0,6.9,7,10.5,12.6,6.7
	l93.8-62.5c5-3.3,5-10.1,0-13.5v0L230,72.9C228.6,71.9,227.2,71.5,225.8,71.5L225.8,71.5z M233.6,94.8l71.2,47.4l-71.2,47.4v-80.7
	V94.8z M184.1,321.7c-17.2,0-31.7,11-37.1,26.3l-1.8,5H32.7c-4.6,0-8.1,3.5-8.1,8.1s3.6,8.1,8.1,8.1h112.5l1.8,5
	c5.4,15.2,20,26.2,37.1,26.2s31.7-11,37.1-26.2l1.8-5h257.9c4.5,0,8.1-3.6,8.1-8.1s-3.5-8.1-8.1-8.1H223l-1.8-5
	C215.8,332.7,201.3,321.7,184.1,321.7z M184.1,337.9c12.7,0,23.2,10.5,23.2,23.2c0,12.7-10.5,23.2-23.2,23.2s-23.2-10.4-23.2-23.2
	C160.9,348.3,171.4,337.9,184.1,337.9z"/>
</svg>
