<?xml version="1.0" encoding="utf-8"?>
<!-- Generator: Adobe Illustrator 22.0.0, SVG Export Plug-In . SVG Version: 6.00 Build 0)  -->
<svg version="1.1" id="Layer_1" xmlns="http://www.w3.org/2000/svg" xmlns:xlink="http://www.w3.org/1999/xlink" x="0px" y="0px"
	 viewBox="0 0 100 93.2" style="enable-background:new 0 0 100 93.2;" xml:space="preserve">
<g>
	<path d="M92,27.9l-43.1-7.7V4.6c0-1.6-1.7-2.8-3.1-2.3l-36.5,12c-1,0.3-1.6,1.2-1.6,2.3v69.5c0,1.3,1.1,2.4,2.4,2.4h81.5
		c1.3,0,2.4-1.1,2.4-2.4V30.2C94,29.1,93.2,28.1,92,27.9z M32.9,83.7h-9.2V61.9h9.2V83.7z M44.2,83.7h-6.5V59.5
		c0-1.3-1.1-2.4-2.4-2.4h-14c-1.3,0-2.4,1.1-2.4,2.4v24.3h-6.5V18.4L44.2,7.9V83.7z M89.2,62.7h-8.6c-1.3,0-2.4,1.1-2.4,2.4
		c0,1.3,1.1,2.4,2.4,2.4h8.6v4.8h-3.8c-1.3,0-2.4,1.1-2.4,2.4c0,1.3,1.1,2.4,2.4,2.4h3.8v6.7H48.9V25.1l40.3,7.2L89.2,62.7
		L89.2,62.7z"/>
	<path d="M54.7,57.2h28.1c1.3,0,2.4-1.1,2.4-2.4V42.6c0-1.3-1.1-2.4-2.4-2.4H54.7c-1.3,0-2.4,1.1-2.4,2.4v12.3
		C52.3,56.1,53.4,57.2,54.7,57.2z M57.2,44.9h23.3v7.5H57.2V44.9z"/>
	<path d="M23.1,28.5h2.8v12.4c0,1.3,1.1,2.4,2.4,2.4s2.4-1.1,2.4-2.4V28.5h2.8c1.3,0,2.4-1.1,2.4-2.4c0-1.3-1.1-2.4-2.4-2.4h-2.8
		v-2.8c0-1.3-1.1-2.4-2.4-2.4c-1.3,0-2.4,1.1-2.4,2.4v2.8h-2.8c-1.3,0-2.4,1.1-2.4,2.4C20.7,27.4,21.8,28.5,23.1,28.5z"/>
</g>
</svg>
