<svg id="Layer_1" data-name="Layer 1" xmlns="http://www.w3.org/2000/svg" viewBox="0 0 72.37 72.74"><title>icon_servicesicon</title><path d="M36.94,66.73a5.88,5.88,0,0,0-1.5-.19,6.15,6.15,0,0,0-6,4.66,6.16,6.16,0,0,0,4.47,7.47,6,6,0,0,0,1.51.19,6.16,6.16,0,0,0,1.49-12.13Zm1.19,6.65a2.8,2.8,0,0,1-3.36,2,2.77,2.77,0,0,1,.67-5.46,3.16,3.16,0,0,1,.68.08,2.78,2.78,0,0,1,2,3.37Z" transform="translate(-15.65 -11.89)"/><path d="M63,74.2a6.14,6.14,0,0,0,6,4.66h0a5.88,5.88,0,0,0,1.5-.19A6.16,6.16,0,0,0,74.9,71.2a6.15,6.15,0,0,0-6-4.66,5.88,5.88,0,0,0-1.5.19A6.15,6.15,0,0,0,63,74.2ZM68.25,70a3.16,3.16,0,0,1,.68-.08A2.76,2.76,0,0,1,71.61,72a2.69,2.69,0,0,1-.31,2.09,2.73,2.73,0,0,1-1.7,1.27,3.08,3.08,0,0,1-.68.08h0A2.77,2.77,0,0,1,68.25,70Z" transform="translate(-15.65 -11.89)"/><path d="M50.3,56.69a1.77,1.77,0,0,0-.49,1.21,1.69,1.69,0,0,0,1.7,1.69,1.73,1.73,0,0,0,1.7-1.69,1.75,1.75,0,0,0-.51-1.21A1.78,1.78,0,0,0,50.3,56.69Z" transform="translate(-15.65 -11.89)"/><path d="M72.54,12.61a1.68,1.68,0,0,0-1.39-.72H21.25a5.6,5.6,0,0,0-5.6,5.59V53.4a5.6,5.6,0,0,0,5.6,5.6H43L40.7,62a11.93,11.93,0,1,0-5.26,22.63A11.91,11.91,0,0,0,47.32,71.85c.87-1,2.49-2.8,4.49-5.1,2.46,2.44,4.34,4.29,5.24,5.16A11.9,11.9,0,0,0,68.93,84.63h0a11.93,11.93,0,0,0,8.79-20,12,12,0,0,0-14.17-2.6L60.75,59l.13,0H71.15a1.73,1.73,0,0,0,1.4-.73L87.72,36.41a1.67,1.67,0,0,0,0-1.93ZM41.74,78.46A8.53,8.53,0,0,1,29.68,79a8.52,8.52,0,0,1-.53-12.06A8.53,8.53,0,1,1,41.74,78.46ZM43.5,63.91l22.13-29.5c1.24,1.94,2.56,4.81,1.82,7.07-1,3-12.71,16.88-21.12,26.37A11.72,11.72,0,0,0,43.5,63.91Zm10.67.41L54,64.2c1.07-1.24,2.2-2.55,3.34-3.91a1,1,0,0,0,.08.11L60.76,64a11.63,11.63,0,0,0-2.8,4Zm21.06,2.62a8.54,8.54,0,1,1-12.6,11.52,8.54,8.54,0,1,1,12.6-11.52Zm-5-11.33h-9c4.61-5.61,8.7-11,9.39-13.08,1.82-5.59-3.53-11.82-3.75-12.08a1.73,1.73,0,0,0-1.34-.58,1.7,1.7,0,0,0-1.3.68L45.49,55.61H21.25A2.21,2.21,0,0,1,19,53.4V17.48a2.2,2.2,0,0,1,2.21-2.2h49l14,20.16Z" transform="translate(-15.65 -11.89)"/><path d="M41.14,26.74a1.7,1.7,0,0,0-3.39,0v.2h-.13c-3.09,0-5.6,2.23-5.6,5v.18c0,1.1.54,2.7,3.12,4a1.45,1.45,0,0,0,.29.11h0l.14.05.07,0,.11,0,2,.41v3.57h-.13c-1.18,0-2.22-.74-2.22-1.58a1.7,1.7,0,1,0-3.39,0c0,2.74,2.52,5,5.61,5h.13v.35a1.7,1.7,0,1,0,3.39,0v-.36a5.28,5.28,0,0,0,5.24-5v-.17c0-1.11-.55-2.72-3.18-4.1l-.13-.05-.23-.08-.09,0h0L41.14,34V30.36c1,.12,1.86.78,1.86,1.54a1.7,1.7,0,1,0,3.39,0A5.26,5.26,0,0,0,41.14,27v-.22Zm1.85,12c0,.77-.82,1.43-1.85,1.56V37.43l.68.14c.88.49,1.15.89,1.17,1ZM36.51,33c-.86-.48-1.09-.85-1.1-.93V31.9c0-.85,1-1.57,2.21-1.57h.13v2.94Z" transform="translate(-15.65 -11.89)"/><path d="M48.07,24.66a1.69,1.69,0,0,0-.09,2.4,12.28,12.28,0,1,1-5.78-3.48,1.69,1.69,0,1,0,.88-3.27A15.68,15.68,0,1,0,46.81,49a15.68,15.68,0,0,0,3.65-24.28A1.69,1.69,0,0,0,48.07,24.66Z" transform="translate(-15.65 -11.89)"/><path d="M75.49,39.57a4.26,4.26,0,1,0-4.25-4.26A4.25,4.25,0,0,0,75.49,39.57Zm0-5.12a.87.87,0,1,1-.86.86A.86.86,0,0,1,75.49,34.45Z" transform="translate(-15.65 -11.89)"/></svg>