<?xml version="1.0" encoding="utf-8"?>
<!-- Generator: Adobe Illustrator 22.0.0, SVG Export Plug-In . SVG Version: 6.00 Build 0)  -->
<svg version="1.1" id="Layer_1" xmlns="http://www.w3.org/2000/svg" xmlns:xlink="http://www.w3.org/1999/xlink" x="0px" y="0px"
	 viewBox="0 0 100 93.2" style="enable-background:new 0 0 100 93.2;" xml:space="preserve">
<g>
	<path d="M56.2,50.7c-2-0.2-3.9,0.5-5.3,1.9l-0.8,0.8l-0.8-0.8c-1.4-1.4-3.3-2.1-5.3-1.9c-2,0.2-3.7,1.2-4.8,2.9
		c-1.7,2.5-1.4,5.8,0.6,8l8.7,9.6c0.4,0.5,1,0.7,1.6,0.7c0.6,0,1.2-0.3,1.6-0.7l8.7-9.6c2-2.2,2.2-5.5,0.6-8
		C59.9,51.9,58.1,50.9,56.2,50.7z M57.2,58.7l-7.1,7.9L43,58.7c-0.7-0.8-0.8-1.9-0.2-2.8c0.4-0.6,1-0.9,1.7-1c0.1,0,0.1,0,0.2,0
		c0.6,0,1.2,0.2,1.6,0.7l2.3,2.3c0.8,0.8,2.2,0.8,3,0l2.3-2.3c0.5-0.5,1.1-0.7,1.8-0.6c0.7,0.1,1.3,0.4,1.7,1
		C58,56.8,57.9,57.9,57.2,58.7z"/>
	<path d="M82.2,61.2c0-10.3-4.9-19.5-12.5-25.3l5.5-5.5c0.4-0.4,0.6-1,0.6-1.5c0-0.6-0.2-1.1-0.6-1.5l-4.8-4.7l7.1-9.3
		c0.7-0.9,0.5-2.2-0.4-3L66.4,1.8c-0.4-0.3-0.9-0.5-1.3-0.5h-8.5H43.7h-8.5c-0.5,0-1,0.2-1.3,0.5l-10.7,8.5c-0.9,0.7-1.1,2.1-0.4,3
		l7.2,9.3l-4.7,4.7c-0.8,0.8-0.8,2.2,0,3l5.4,5.4C23,41.6,18.1,50.8,18.1,61.2c0,17.7,14.4,32,32,32S82.2,78.8,82.2,61.2z M66,33.4
		c-1.3-0.8-2.7-1.4-4.1-2l5.5-5.6l3.1,3L66,33.4z M34.5,21.4l-5.6-7.2h11L43,29.9L34.5,21.4z M47.2,29.3l-3-15.1H56l-3,15.1
		c-1-0.1-1.9-0.1-2.9-0.1S48.2,29.2,47.2,29.3z M71.4,14.2l-5.6,7.2L57.4,30c0,0-0.1,0-0.1,0l3.2-15.8H71.4z M69.7,9.9h-9.3
		l-1.1-4.3h5.1L69.7,9.9z M54.8,5.6l1.1,4.3H44.3l1.1-4.3H54.8z M35.9,5.6H41l-1.1,4.3h-9.3L35.9,5.6z M29.8,28.9l3-3l5.5,5.5
		c-1.4,0.6-2.8,1.2-4.1,2L29.8,28.9z M50.1,88.9c-15.3,0-27.8-12.5-27.8-27.8s12.5-27.8,27.8-27.8s27.8,12.5,27.8,27.8
		S65.4,88.9,50.1,88.9z"/>
	<path d="M50.1,37.7c-13,0-23.5,10.5-23.5,23.5s10.5,23.5,23.5,23.5s23.5-10.5,23.5-23.5S63.1,37.7,50.1,37.7z M50.1,80.4
		c-10.6,0-19.2-8.6-19.2-19.2s8.6-19.2,19.2-19.2s19.2,8.6,19.2,19.2S60.7,80.4,50.1,80.4z"/>
</g>
</svg>
