<?xml version="1.0" encoding="utf-8"?>
<!-- Generator: Adobe Illustrator 22.0.0, SVG Export Plug-In . SVG Version: 6.00 Build 0)  -->
<svg version="1.1" id="Layer_1" xmlns="http://www.w3.org/2000/svg" xmlns:xlink="http://www.w3.org/1999/xlink" x="0px" y="0px"
	 viewBox="0 0 100 93.2" style="enable-background:new 0 0 100 93.2;" xml:space="preserve">
<g>
	<g>
		<g>
			<path d="M88.3,56.2H9c-0.7,0-1.4-0.6-1.4-1.4V41.3C7.6,40.6,8.2,40,9,40c3.5,0,6.4-2.9,6.4-6.4s-2.9-6.4-6.4-6.4
				c-0.7,0-1.4-0.6-1.4-1.4V14.2c0-0.7,0.6-1.4,1.4-1.4h79.4c0.7,0,1.4,0.6,1.4,1.4v11.6c0,0.7-0.6,1.4-1.4,1.4
				c-3.5,0-6.4,2.9-6.4,6.4s2.9,6.4,6.4,6.4c0.7,0,1.4,0.6,1.4,1.4v13.5C89.7,55.6,89.1,56.2,88.3,56.2z M10.3,53.5H87V42.6
				c-4.4-0.7-7.7-4.4-7.7-9s3.4-8.3,7.7-9v-9H10.3v9c4.4,0.7,7.7,4.4,7.7,9s-3.4,8.3-7.7,9V53.5z"/>
		</g>
		<g>
			<path d="M43.8,83.3H25.3c-3.3,0-6-2.7-6-6v-10c0-3.3,2.7-6,6-6h18.5c0.7,0,1.4,0.6,1.4,1.4V82C45.1,82.7,44.5,83.3,43.8,83.3z
				 M25.3,64c-1.8,0-3.3,1.5-3.3,3.3v10c0,1.8,1.5,3.3,3.3,3.3h17.2V64H25.3z"/>
		</g>
		<g>
			<path d="M53.5,81.4c-0.2,0-0.3,0-0.5-0.1l-9.7-3.9c-0.5-0.2-0.9-0.7-0.9-1.3v-7.7c0-0.6,0.3-1.1,0.9-1.3l9.7-3.9
				c0.4-0.2,0.9-0.1,1.3,0.1c0.4,0.3,0.6,0.7,0.6,1.1v15.5c0,0.4-0.2,0.9-0.6,1.1C54,81.3,53.7,81.4,53.5,81.4z M45.1,75.3l7,2.8
				V66.6l-7,2.8V75.3z"/>
		</g>
		<g>
			<path d="M78.6,65.9H61.2c-0.7,0-1.4-0.6-1.4-1.4c0-0.7,0.6-1.4,1.4-1.4h17.4c0.7,0,1.4,0.6,1.4,1.4S79.4,65.9,78.6,65.9z"/>
		</g>
		<g>
			<path d="M86.4,73.7H69c-0.7,0-1.4-0.6-1.4-1.4c0-0.7,0.6-1.4,1.4-1.4h17.4c0.7,0,1.4,0.6,1.4,1.4C87.7,73.1,87.1,73.7,86.4,73.7z
				"/>
		</g>
		<g>
			<path d="M90.2,81.4h-29c-0.7,0-1.4-0.6-1.4-1.4c0-0.7,0.6-1.4,1.4-1.4h29c0.7,0,1.4,0.6,1.4,1.4S91,81.4,90.2,81.4z"/>
		</g>
		<g>
			<path d="M86.4,7.9H10.9c-0.7,0-1.4-0.6-1.4-1.4s0.6-1.4,1.4-1.4h75.5c0.7,0,1.4,0.6,1.4,1.4S87.1,7.9,86.4,7.9z"/>
		</g>
		<rect x="14.8" y="18.1" width="7.7" height="3.9"/>
		<rect x="26.4" y="18.1" width="7.7" height="3.9"/>
		<rect x="38" y="18.1" width="7.7" height="3.9"/>
		<rect x="49.6" y="18.1" width="7.7" height="3.9"/>
		<rect x="61.2" y="18.1" width="7.7" height="3.9"/>
		<rect x="72.8" y="18.1" width="7.7" height="3.9"/>
		<rect x="14.8" y="47.1" width="7.7" height="3.9"/>
		<rect x="26.4" y="47.1" width="7.7" height="3.9"/>
		<rect x="38" y="47.1" width="7.7" height="3.9"/>
		<rect x="49.6" y="47.1" width="7.7" height="3.9"/>
		<rect x="61.2" y="47.1" width="7.7" height="3.9"/>
		<rect x="72.8" y="47.1" width="7.7" height="3.9"/>
	</g>
</g>
</svg>
