<?xml version="1.0" encoding="utf-8"?>
<!-- Generator: Adobe Illustrator 22.0.0, SVG Export Plug-In . SVG Version: 6.00 Build 0)  -->
<svg version="1.1" id="Layer_1" xmlns="http://www.w3.org/2000/svg" xmlns:xlink="http://www.w3.org/1999/xlink" x="0px" y="0px"
	 viewBox="0 0 100 93.2" style="enable-background:new 0 0 100 93.2;" xml:space="preserve">
<g>
	<path d="M51.5,77.6H15.2c-2.9,0-5.2-2.3-5.2-5.2V10.2C10,7.3,12.3,5,15.2,5h62.2c2.9,0,5.2,2.3,5.2,5.2v17.3h-3.5V10.2
		c0-1-0.8-1.7-1.7-1.7H15.2c-1,0-1.7,0.8-1.7,1.7v62.2c0,1,0.8,1.7,1.7,1.7h36.3V77.6z"/>
	<rect x="11.7" y="15.4" width="69.2" height="3.5"/>
	<path d="M80.9,88c-2.9,0-5.2-2.3-5.2-5.2V54c-6-2.9-8.6-10.1-5.8-16.1c1.4-2.9,3.9-5.2,6.9-6.2c0.9-0.3,1.9,0.2,2.2,1.1
		c0.1,0.2,0.1,0.4,0.1,0.6v8h3.5v-8c0-1,0.8-1.7,1.7-1.7c0.2,0,0.4,0,0.6,0.1c6.3,2.2,9.6,9.1,7.4,15.4c-1.1,3-3.3,5.5-6.2,6.9v28.8
		C86.1,85.7,83.8,88,80.9,88z M75.7,36.1c-3.8,2.9-4.6,8.3-1.7,12.1c1,1.4,2.4,2.4,4,3c0.7,0.2,1.2,0.9,1.2,1.6v30
		c0,1,0.8,1.7,1.7,1.7c1,0,1.7-0.8,1.7-1.7v-30c0-0.7,0.5-1.4,1.2-1.6c4.5-1.6,6.9-6.5,5.3-11c-0.6-1.6-1.6-3-3-4V43
		c0,1-0.8,1.7-1.7,1.7h-6.9c-1,0-1.7-0.8-1.7-1.7L75.7,36.1L75.7,36.1z"/>
	<path d="M61.9,88c-3.8,0-6.9-3.1-6.9-6.9V65.5c0-1,0.8-1.7,1.7-1.7h10.4c1,0,1.7,0.8,1.7,1.7v15.6C68.8,84.9,65.7,88,61.9,88z
		 M58.4,67.2V81c0,1.9,1.5,3.5,3.5,3.5c1.9,0,3.5-1.5,3.5-3.5V67.2H58.4z"/>
	<path d="M70.5,67.2H53.2c-1,0-1.7-0.8-1.7-1.7v-6.9c0-1,0.8-1.7,1.7-1.7h17.3c1,0,1.7,0.8,1.7,1.7v6.9
		C72.3,66.5,71.5,67.2,70.5,67.2z M55,63.8h13.8v-3.5H55V63.8z"/>
	<path d="M61.9,36.1c-2.9,0-5.2-2.3-5.2-5.2V24c0-1,0.8-1.7,1.7-1.7h6.9c1,0,1.7,0.8,1.7,1.7v6.9C67.1,33.8,64.7,36.1,61.9,36.1z
		 M60.1,25.7v5.2c0,1,0.8,1.7,1.7,1.7c1,0,1.7-0.8,1.7-1.7v-5.2H60.1z"/>
	<rect x="60.1" y="34.4" width="3.5" height="24.2"/>
	<path d="M35.9,44.8H18.6c-1,0-1.7-0.8-1.7-1.7V25.7c0-1,0.8-1.7,1.7-1.7h17.3c1,0,1.7,0.8,1.7,1.7V43C37.7,44,36.9,44.8,35.9,44.8z
		 M20.4,41.3h13.8V27.5H20.4V41.3z"/>
	<path d="M35.9,69H18.6c-1,0-1.7-0.8-1.7-1.7V50c0-1,0.8-1.7,1.7-1.7h17.3c1,0,1.7,0.8,1.7,1.7v17.3C37.7,68.2,36.9,69,35.9,69z
		 M20.4,65.5h13.8V51.7H20.4V65.5z"/>
	<rect x="42.9" y="25.7" width="10.4" height="3.5"/>
	<rect x="42.9" y="32.7" width="10.4" height="3.5"/>
	<rect x="42.9" y="39.6" width="13.8" height="3.5"/>
	<rect x="42.9" y="50" width="13.8" height="3.5"/>
	<rect x="42.9" y="56.9" width="5.2" height="3.5"/>
	<rect x="42.9" y="63.8" width="5.2" height="3.5"/>
</g>
</svg>
