<?xml version="1.0" encoding="utf-8"?>
<!-- Generator: Adobe Illustrator 22.0.0, SVG Export Plug-In . SVG Version: 6.00 Build 0)  -->
<svg version="1.1" id="Layer_1" xmlns="http://www.w3.org/2000/svg" xmlns:xlink="http://www.w3.org/1999/xlink" x="0px" y="0px"
	 viewBox="0 0 100 93.2" style="enable-background:new 0 0 100 93.2;" xml:space="preserve">
<g>
	<g>
		<g>
			<path d="M31.4,70.3c-0.6-0.2-1.3-0.2-1.9-0.2c-3.6,0-6.8,2.5-7.7,6c-0.5,2-0.2,4.2,0.9,6s2.8,3.1,4.8,3.6
				c0.6,0.2,1.3,0.2,1.9,0.2c3.6,0,6.8-2.5,7.6-6c0.5-2,0.2-4.2-0.9-6C35.2,72.1,33.4,70.8,31.4,70.3z M32.9,78.8
				c-0.5,1.9-2.4,3-4.3,2.6c-0.9-0.2-1.7-0.8-2.2-1.6C26,78.9,25.8,78,26,77.1c0.4-1.6,1.8-2.7,3.4-2.7c0.3,0,0.6,0,0.9,0.1
				c0.9,0.2,1.7,0.8,2.2,1.6C33,76.9,33.2,77.9,32.9,78.8z"/>
			<path d="M64.7,79.8c0.9,3.5,4,6,7.6,6l0,0c0.6,0,1.3-0.1,1.9-0.2c2-0.5,3.8-1.8,4.8-3.6c1.1-1.8,1.4-3.9,0.9-6
				c-0.9-3.5-4-6-7.7-6c-0.6,0-1.3,0.1-1.9,0.2C66.2,71.3,63.7,75.6,64.7,79.8z M71.5,74.5c0.3-0.1,0.6-0.1,0.9-0.1
				c1.6,0,3,1.1,3.4,2.7c0.2,0.9,0.1,1.9-0.4,2.7c-0.5,0.8-1.3,1.4-2.2,1.6c-0.3,0.1-0.6,0.1-0.9,0.1l0,0c-1.6,0-3-1.1-3.4-2.7
				C68.5,76.9,69.6,75,71.5,74.5z"/>
			<path d="M48.5,57.4c-0.4,0.4-0.6,1-0.6,1.5c0,0.6,0.2,1.1,0.6,1.5c0.4,0.4,1,0.6,1.5,0.6c0.6,0,1.1-0.2,1.5-0.6
				c0.4-0.4,0.6-1,0.6-1.5c0-0.6-0.2-1.1-0.6-1.5C50.8,56.6,49.3,56.6,48.5,57.4z"/>
			<path d="M77,2.9C76.6,2.3,75.9,2,75.2,2H14.3c-4,0-7.2,3.2-7.2,7.2v44c0,4,3.2,7.2,7.2,7.2h24.8l-2.9,3.8c-2.1-1-4.4-1.6-6.7-1.6
				c-4.3,0-8.4,1.8-11.3,5c-2.8,3-4.2,6.9-4,11s1.9,7.8,5,10.6c2.8,2.6,6.5,4,10.3,4c4.3,0,8.4-1.8,11.3-5s4.2-7.4,3.9-11.4
				c1.1-1.2,3.2-3.6,5.8-6.5c3.1,3.1,5.6,5.5,6.7,6.6c-0.3,4,1,8.1,3.9,11.3c2.9,3.2,7,5,11.3,5l0,0c3.8,0,7.5-1.4,10.3-4
				c3-2.8,4.8-6.5,5-10.6s-1.2-8-4-11c-2.9-3.2-7-5-11.3-5c-2.4,0-4.8,0.6-6.9,1.6l-3.6-3.9c0.1,0,0.1,0,0.2,0h13.2
				c0.7,0,1.4-0.3,1.8-0.9l19.4-28c0.5-0.7,0.5-1.7,0-2.5L77,2.9z M37.6,85.3c-2.1,2.3-5,3.6-8.1,3.6c-2.7,0-5.4-1-7.4-2.9
				c-2.2-2-3.4-4.7-3.5-7.6s0.9-5.7,2.9-7.9c2.1-2.3,5-3.6,8.1-3.6c2.7,0,5.4,1,7.4,2.9C41.3,73.9,41.6,80.8,37.6,85.3z M39.8,66.6
				l28.4-37.8c1.6,2.5,3.3,6.2,2.3,9.1c-1.2,3.8-16.3,21.6-27.1,33.8C42.6,69.8,41.4,68.1,39.8,66.6z M53.5,67.2
				c-0.1-0.1-0.1-0.1-0.2-0.1c1.4-1.6,2.8-3.3,4.3-5l0.1,0.1l4.2,4.6c-1.6,1.5-2.8,3.3-3.6,5.2C57.1,70.7,55.4,69.1,53.5,67.2z
				 M80.5,70.5c2,2.2,3,5,2.9,7.9S82,84,79.9,86c-2,1.9-4.6,2.9-7.4,2.9c-3.1,0-6-1.3-8.1-3.6c-4.1-4.5-3.8-11.4,0.7-15.5
				c2-1.8,4.6-2.9,7.4-2.9C75.4,67,78.4,68.3,80.5,70.5z M74.1,56H62.6c5.9-7.2,11.1-14,12-16.7c2.3-7.2-4.5-15.1-4.8-15.5
				c-0.4-0.5-1.1-0.8-1.7-0.7c-0.7,0-1.3,0.3-1.7,0.9l-24,32H14.3c-1.6,0-2.8-1.3-2.8-2.8v-44c0-1.6,1.3-2.8,2.8-2.8h59.8L92,30.2
				L74.1,56z"/>
			<path d="M36.8,19c0-1.2-1-2.2-2.2-2.2s-2.2,1-2.2,2.2v0.3h-0.2c-4,0-7.2,2.9-7.2,6.4v0.2c0,1.4,0.7,3.5,4,5.2
				c0.1,0.1,0.2,0.1,0.4,0.1l0,0c0.1,0,0.1,0.1,0.2,0.1h0.1c0.1,0,0.1,0,0.1,0l2.5,0.5v4.6h-0.2c-1.5,0-2.8-1-2.8-2
				c0-1.2-1-2.2-2.2-2.2s-2.2,1-2.2,2.2c0,3.5,3.2,6.4,7.2,6.4h0.2v0.4c0,1.2,1,2.2,2.2,2.2s2.2-1,2.2-2.2v-0.5
				c3.7-0.2,6.7-3,6.7-6.4v-0.2c0-1.4-0.7-3.5-4.1-5.2c-0.1,0-0.1,0-0.2-0.1c-0.1,0-0.2-0.1-0.3-0.1h-0.1l0,0l0,0l-2-0.4v-4.6
				c1.3,0.2,2.4,1,2.4,2c0,1.2,1,2.2,2.2,2.2s2.2-1,2.2-2.2c0-3.4-3-6.1-6.7-6.3L36.8,19L36.8,19z M39.2,34.4c0,1-1.1,1.8-2.4,2
				v-3.7l0.9,0.2c1.1,0.6,1.5,1.1,1.5,1.3V34.4z M30.9,27.1c-1.1-0.6-1.4-1.1-1.4-1.2v-0.2c0-1.1,1.3-2,2.8-2h0.2v3.8L30.9,27.1z"/>
			<path d="M45.7,16.4c-0.9,0.8-0.9,2.2-0.1,3.1c3.7,4,5.1,9.6,3.7,14.8c-1.1,4.1-3.7,7.4-7.3,9.5s-7.9,2.6-11.9,1.6
				C21.7,43.1,16.7,34.5,19,26.1S29.9,12.7,38.3,15c1.2,0.3,2.3-0.4,2.7-1.5c0.3-1.2-0.4-2.3-1.5-2.7c-10.9-2.9-22,3.5-24.8,14.2
				c-2.9,10.7,3.5,21.7,14.2,24.6c1.7,0.5,3.5,0.7,5.3,0.7c3.5,0,6.9-0.9,10-2.7c4.7-2.7,8-7,9.4-12.2c1.8-6.7,0.1-13.8-4.7-18.9
				C47.9,15.6,46.5,15.6,45.7,16.4z"/>
			<path d="M80.8,35.5c3,0,5.4-2.4,5.4-5.4s-2.4-5.4-5.4-5.4s-5.4,2.4-5.4,5.4C75.3,33,77.8,35.5,80.8,35.5z M80.8,28.9
				c0.6,0,1.1,0.5,1.1,1.1s-0.5,1.1-1.1,1.1s-1.1-0.5-1.1-1.1C79.7,29.4,80.2,28.9,80.8,28.9z"/>
		</g>
	</g>
</g>
</svg>
