<?xml version="1.0" encoding="utf-8"?>
<!-- Generator: Adobe Illustrator 22.0.0, SVG Export Plug-In . SVG Version: 6.00 Build 0)  -->
<svg version="1.1" id="Layer_1" xmlns="http://www.w3.org/2000/svg" xmlns:xlink="http://www.w3.org/1999/xlink" x="0px" y="0px"
	 viewBox="0 0 100 93.2" style="enable-background:new 0 0 100 93.2;" xml:space="preserve">
<path d="M83.5,66.7l-7.8,3L69.6,59l15.6-10.2c0.9-0.6,1.1-1.7,0.5-2.5c-0.6-0.8-1.7-1.1-2.5-0.5L66.6,56.6
	c-2.4-0.6-8.8-1.9-12.6-1.8c-2.1-1.5-4.4-2.5-6.8-1.5c-2.6,1-6.6,2.5-8.4,3.2L22.3,45.7c-0.9-0.6-2-0.3-2.5,0.5
	c-0.6,0.8-0.3,2,0.5,2.5L35.8,59l-6.1,10.7l-7.8-3c-0.9-0.4-2,0.1-2.4,1.1c-0.4,0.9,0.1,2,1.1,2.4l9.3,3.6c0.5,0.5,1.3,1.3,2.3,1.9
	c-0.6,0.7-1,1.5-1,2.5c-0.1,1.1,0.3,2.2,1,3c0.6,0.7,1.4,1.2,2.2,1.4c0.1,0.8,0.4,1.7,1,2.4c0.6,0.7,1.4,1.2,2.2,1.4
	c0.1,0.9,0.4,1.7,1,2.4c0.9,1.1,2.2,1.6,3.5,1.5c0.2,0.5,0.4,1,0.8,1.4c0.8,1,2.1,1.5,3.2,1.5c0.9,0,1.8-0.3,2.5-0.9l1.8-1.5l0.9,1
	c0.7,0.9,1.8,1.4,3,1.4c1,0,2-0.4,2.7-1c0.3-0.2,0.5-0.5,0.7-0.8c0.6,0.4,1.4,0.7,2.2,0.7c1,0,2-0.4,2.8-1c0.7-0.6,1.2-1.4,1.4-2.3
	c0.9-0.1,1.8-0.4,2.5-1c0.8-0.7,1.4-1.7,1.5-2.7c0-0.3,0-0.5,0-0.8c0.5-0.2,1-0.4,1.4-0.8c0.8-0.7,1.4-1.7,1.5-2.7
	c0.1-0.5,0-1.1-0.1-1.5c2.4-2.3,4-4.5,4.8-5.7l9-3.5c0.9-0.4,1.4-1.4,1.1-2.4S84.4,66.3,83.5,66.7z M39.7,59.7
	c1.8-0.7,6-2.2,8.7-3.3c1.2-0.5,2.6,0.3,4,1.4c0,0,0,0,0.1,0.1c1.8,1.5,3.4,3.6,4.2,4.6c3.7,4.8,3.9,6.2,3.7,6.5
	c0,0-0.1,0.1-0.6,0.3c-1.5,0.3-5.5-2.2-7.4-5.2c-0.5-0.7-1.5-1-2.2-0.5c0,0-4,2.3-9.9,1.8c-0.9-0.1-1.7,0.6-1.8,1.5
	c-0.1,0.9,0.6,1.7,1.5,1.8c0.1,0,0.1,0,0.2,0l-5.3,4.6c-0.8-0.3-1.5-0.8-2.1-1.3L39.7,59.7z M55,89.6c-0.2,0.2-0.4,0.2-0.6,0.2
	c-0.1,0-0.3,0-0.5-0.2L52,87.4c0,0,0,0,0,0c0,0,0,0,0,0l-0.6-0.7c-0.2-0.3-0.1-0.8,0.2-1.1c0.2-0.2,0.4-0.2,0.6-0.2
	c0.1,0,0.3,0,0.5,0.2l2.5,3C55.5,88.9,55.4,89.3,55,89.6z M60.7,88.5c-0.2,0.2-0.4,0.2-0.6,0.2c-0.1,0-0.3,0-0.5-0.2l-4.3-5.2
	c-0.1-0.1-0.1-0.3-0.1-0.4c0-0.2,0.1-0.5,0.4-0.6c0.2-0.2,0.4-0.2,0.6-0.2c0.1,0,0.3,0,0.5,0.2l4.3,5.2C61.1,87.8,61,88.2,60.7,88.5
	z M64.5,85.3c-0.2,0.2-0.4,0.2-0.6,0.2c-0.1,0-0.3,0-0.5-0.2l-4.3-5.2c-0.2-0.3-0.1-0.8,0.2-1.1c0.2-0.2,0.4-0.2,0.6-0.2
	c0.1,0,0.3,0,0.5,0.2l0.9,1.1c0,0,0,0,0,0l2.5,3c0,0,0,0,0,0l0.9,1.1c0.1,0.2,0.1,0.3,0.1,0.5C64.8,84.9,64.7,85.1,64.5,85.3z
	 M64.1,76.9c0.2-0.2,0.4-0.2,0.6-0.2c0.1,0,0.3,0,0.5,0.2l2.5,3c0.1,0.2,0.1,0.3,0.1,0.5c0,0.2-0.2,0.4-0.3,0.6
	c-0.2,0.2-0.4,0.2-0.6,0.2c-0.1,0-0.3,0-0.5-0.2l-2.5-3C63.6,77.7,63.7,77.2,64.1,76.9z M69.1,76.5l-1.4-1.7
	c-1.4-1.6-4.1-1.8-5.8-0.4c-0.5,0.4-0.8,0.8-1.1,1.3c-1.3-0.3-2.7,0-3.7,0.8c-0.7,0.6-1.2,1.4-1.4,2.3c-0.9,0.1-1.8,0.4-2.5,0.9
	c-0.7,0.6-1.2,1.4-1.4,2.3c-0.9,0.1-1.7,0.4-2.5,0.9c-1.6,1.3-2,3.5-1,5.1l-1.9,1.6c-0.3,0.2-0.8,0.1-1.1-0.2
	c-0.3-0.4-0.3-0.9,0-1.1l0,0l1.1-0.9c0.7-0.6,0.8-1.6,0.2-2.3c-0.6-0.7-1.6-0.8-2.3-0.2l-1.1,1c0,0,0,0,0,0l-1.1,0.9
	c-0.3,0.2-0.8,0.1-1.1-0.2c-0.2-0.2-0.2-0.4-0.2-0.7c0-0.1,0-0.3,0.2-0.4l4.6-3.9c0.7-0.6,0.8-1.6,0.2-2.3c-0.6-0.7-1.6-0.8-2.3-0.2
	L39,82.9c0,0,0,0,0,0l0,0c-0.1,0.1-0.3,0.1-0.4,0.1c-0.2,0-0.5-0.1-0.6-0.4c-0.2-0.3-0.3-0.6-0.2-0.8l3.9-3.2
	c0.7-0.6,0.8-1.6,0.2-2.3c-0.6-0.7-1.6-0.8-2.3-0.2l-3.8,3.2c-0.3,0-0.6-0.1-0.9-0.4c-0.2-0.2-0.3-0.5-0.3-0.7
	c0-0.1,0.1-0.4,0.3-0.5l1.5-1.3c0.1-0.1,0.2-0.2,0.3-0.3l8.9-7.7c2.2-0.3,3.9-0.9,5-1.4c2.2,2.7,6.1,5.6,9.1,5.6
	c0.3,0,0.6,0,0.9-0.1c1.9-0.4,2.7-1.5,3-2.4c1-2.7-1.5-6.1-4.2-9.7c-0.4-0.6-1-1.3-1.7-2.1c2.9,0.3,6.2,1,8.2,1.5l7,12.3
	C72.1,73.1,70.9,74.8,69.1,76.5z"/>
<path d="M89.4,31.2L53.9,0.5c-0.7-0.6-1.7-0.6-2.4,0l-16.2,14V5.4c0-1-0.8-1.8-1.8-1.8H21.9c-1,0-1.8,0.8-1.8,1.8v22.3l-4,3.5
	c-0.8,0.7-0.9,1.8-0.2,2.6c0.7,0.8,1.8,0.9,2.6,0.2L52.7,4.3L87,34c0.3,0.3,0.8,0.4,1.2,0.4c0.5,0,1-0.2,1.4-0.6
	C90.2,33,90.1,31.9,89.4,31.2z M23.8,7.3h7.9v10.4l-7.9,6.8V7.3z"/>
<path d="M64.6,47.5c1,0,1.8-0.8,1.8-1.8V26.1c0-1-0.8-1.8-1.8-1.8H40.8c-1,0-1.8,0.8-1.8,1.8v19.6c0,1,0.8,1.8,1.8,1.8H64.6z
	 M42.7,37.8h8.2v6c0,0,0,0.1,0,0.1h-8.2C42.7,43.9,42.7,37.8,42.7,37.8z M54.5,43.9C54.5,43.8,54.5,43.8,54.5,43.9l0-6.1h8.2v6.1
	C62.7,43.9,54.5,43.9,54.5,43.9z M62.7,34.1h-8.2V28h8.2V34.1z M50.9,28v6.1h-8.2V28C42.7,28,50.9,28,50.9,28z"/>
</svg>
