<?xml version="1.0" encoding="utf-8"?>
<!-- Generator: Adobe Illustrator 22.0.0, SVG Export Plug-In . SVG Version: 6.00 Build 0)  -->
<svg version="1.1" id="Layer_1" xmlns="http://www.w3.org/2000/svg" xmlns:xlink="http://www.w3.org/1999/xlink" x="0px" y="0px"
	 viewBox="0 0 100 93.2" style="enable-background:new 0 0 100 93.2;" xml:space="preserve">
<g transform="translate(0,-952.36218)">
	<path d="M51.2,953.4c-1.8,0-3.6,0.4-5.2,1.5c-1.4,0.9-2.6,2.1-4,3.7h-9.4c-1.1,0-2.1,1-2.1,2.1v3.1c-4.5,0-9.1,0-13.7,0
		c-1,0.1-1.9,1-1.9,2.1v76.6c0,1.1,1,2.1,2.1,2.1h68.4c1.1,0,2.1-1,2.1-2.1v-76.6c0-1.1-1-2.1-2.1-2.1H72v-3.1c0-1.1-1-2.1-2.1-2.1
		h-9.4c-1.4-1.6-2.7-2.9-4-3.7C54.9,953.8,53.1,953.4,51.2,953.4z M51.2,957.5c1.3,0,2,0.2,2.9,0.8s2.2,1.8,3.8,3.6
		c0.4,0.5,1,0.7,1.6,0.7h8.3v7.2c-11,0-22.1,0-33.1,0v-7.2H43c0.6,0,1.2-0.3,1.6-0.7c1.6-1.9,2.8-3,3.8-3.6S50,957.5,51.2,957.5z
		 M19.1,967.9h11.4v4.1c0,1.1,1,2.1,2.1,2.1c12.4,0,24.9,0,37.3,0c1.1,0,2.1-1,2.1-2.1v-4.1h11.4v72.5H19.1V967.9z M51.2,978.3
		c-4,0-7.2,3.2-7.2,7.2s3.2,7.2,7.2,7.2s7.2-3.2,7.2-7.2S55.2,978.3,51.2,978.3z M51.2,982.3c1.7,0,3.1,1.4,3.1,3.1
		s-1.4,3.1-3.1,3.1s-3.1-1.4-3.1-3.1S49.5,982.3,51.2,982.3z M43,992.7c-0.3,0-0.7,0.1-0.9,0.3c-0.9,0.4-2.5,1.2-3.9,2.8
		c-1.4,1.6-2.5,4-2.5,7.2c0,0.2,0,6.1,0,7.2c0,1.1,1,2.1,2.1,2.1h26.9c1.1,0,2.1-1,2.1-2.1c0-1.1,0-7,0-7.2c0-3.2-1.1-5.6-2.5-7.2
		c-1.4-1.6-3-2.4-3.9-2.8c-1-0.5-2.4-0.1-2.9,0.9s0,2.4,1,2.8c0.8,0.4,1.8,0.9,2.6,1.8c0.8,0.9,1.5,2.2,1.5,4.6c0,0.1,0,3,0,5.2
		H39.9c0-2.2,0-5,0-5.2c0-2.4,0.7-3.7,1.5-4.6s1.8-1.4,2.6-1.8c0.9-0.4,1.4-1.4,1.1-2.4C44.8,993.4,43.9,992.7,43,992.7z
		 M31.4,1018.6c-1.1,0.1-2,1.1-2,2.2s1.1,2,2.2,2h39.4c1.1,0,2.1-1,2.1-2.1c0-1.1-1-2.1-2.1-2.1
		C57.7,1018.6,44.5,1018.6,31.4,1018.6z M31.4,1030c-1.1,0.1-2,1.1-2,2.2s1.1,2,2.2,2h39.4c1.1,0,2.1-1,2.1-2.1s-1-2.1-2.1-2.1
		C57.7,1030,44.5,1030,31.4,1030z"/>
</g>
</svg>
